<svg width="48" height="48" viewBox="0 0 48 48" fill="none" xmlns="http://www.w3.org/2000/svg">
<path d="M22.778 15.778C21.7052 15.7736 20.644 16.0008 19.667 16.444C21.556 17.334 22.777 19.334 22.777 21.556C22.777 24.666 20.333 27.111 17.222 27.111C16.444 27.111 15.667 26.889 15 26.667C16.111 30 19.222 32.333 22.778 32.333C27.333 32.333 31 28.556 31 24.111C31 19.444 27.222 15.778 22.778 15.778Z" fill="white"/>
<path d="M22.778 15.778C21.7052 15.7736 20.644 16.0008 19.667 16.444C21.556 17.334 22.777 19.334 22.777 21.556C22.777 24.666 20.333 27.111 17.222 27.111C16.444 27.111 15.667 26.889 15 26.667C16.111 30 19.222 32.333 22.778 32.333C27.333 32.333 31 28.556 31 24.111C31.111 19.444 27.333 15.778 22.778 15.778Z" fill="white"/>
<path d="M22.778 15.778C27.333 15.778 31 19.556 31 24C31 28.444 27.222 32.222 22.778 32.222C19.111 32.222 16 29.778 15 26.556C15.667 26.778 16.444 27 17.222 27C20.333 27 22.778 24.556 22.778 21.444C22.778 19.222 21.556 17.334 19.667 16.334C20.667 15.889 21.667 15.778 22.777 15.778H22.778ZM22.777 14.111C21.4883 14.1067 20.2092 14.3325 19 14.778C18.333 15 17.222 15.667 17.111 16.333C17.111 17 20.889 17.778 20.889 21.444C20.8931 21.9413 20.7982 22.4344 20.6098 22.8947C20.4214 23.3549 20.1433 23.773 19.7917 24.1247C19.44 24.4763 19.0219 24.7545 18.5616 24.9429C18.1014 25.1313 17.6083 25.2262 17.111 25.222C15 25.222 13.778 24.112 13.333 24.556C12.778 25 13.111 26.444 13.223 27.111C14.555 31.333 18.332 34 22.777 34C28.332 34 32.777 29.444 32.777 24C32.777 18.556 28.332 14.111 22.777 14.111Z" fill="#2A2A2A"/>
</svg>
