<svg width="48" height="48" viewBox="0 0 48 48" fill="none" xmlns="http://www.w3.org/2000/svg">
<path d="M23.504 32.693C22.4274 32.6955 21.3609 32.4853 20.3657 32.0744C19.3706 31.6636 18.4664 31.0602 17.7051 30.2989C16.9438 29.5376 16.3404 28.6334 15.9295 27.6383C15.5187 26.6431 15.3085 25.5766 15.311 24.5C15.3085 23.4233 15.5187 22.3568 15.9295 21.3617C16.3404 20.3665 16.9438 19.4623 17.7051 18.7011C18.4664 17.9398 19.3706 17.3364 20.3657 16.9255C21.3609 16.5147 22.4274 16.3045 23.504 16.307C24.5806 16.3045 25.6471 16.5147 26.6423 16.9255C27.6374 17.3364 28.5416 17.9398 29.3029 18.7011C30.0642 19.4623 30.6676 20.3665 31.0784 21.3617C31.4893 22.3568 31.6995 23.4233 31.697 24.5C31.6995 25.5766 31.4893 26.6431 31.0784 27.6383C30.6676 28.6334 30.0642 29.5376 29.3029 30.2989C28.5416 31.0602 27.6374 31.6636 26.6423 32.0744C25.6471 32.4853 24.5806 32.6955 23.504 32.693ZM23.504 18.079C21.8014 18.0803 20.169 18.7572 18.9651 19.9611C17.7612 21.165 17.0843 22.7974 17.083 24.5C17.0843 26.2025 17.7612 27.835 18.9651 29.0388C20.169 30.2427 21.8014 30.9196 23.504 30.921C25.2065 30.9196 26.839 30.2427 28.0429 29.0388C29.2468 27.835 29.9237 26.2025 29.925 24.5C29.9237 22.7974 29.2468 21.165 28.0429 19.9611C26.839 18.7572 25.2065 18.0803 23.504 18.079Z" fill="#2A2A2A"/>
<path d="M23.504 18.079C21.8015 18.0803 20.169 18.7572 18.9651 19.9611C17.7613 21.165 17.0843 22.7974 17.083 24.5C17.0843 26.2025 17.7613 27.835 18.9651 29.0388C20.169 30.2427 21.8015 30.9197 23.504 30.921C25.2066 30.9197 26.839 30.2427 28.0429 29.0388C29.2468 27.835 29.9237 26.2025 29.925 24.5C29.9237 22.7974 29.2468 21.165 28.0429 19.9611C26.839 18.7572 25.2066 18.0803 23.504 18.079Z" fill="#EF9D33"/>
<path d="M23.504 39.004C23.061 39.004 22.618 38.671 22.618 38.118V35.239C22.618 34.796 22.95 34.354 23.504 34.354C24.058 34.354 24.39 34.686 24.39 35.239V38.118C24.39 38.671 23.947 39.004 23.504 39.004ZM23.504 14.646C23.061 14.646 22.618 14.314 22.618 13.761V10.882C22.618 10.439 22.95 9.99597 23.504 9.99597C24.058 9.99597 24.39 10.329 24.39 10.882V13.761C24.39 14.314 23.947 14.646 23.504 14.646Z" fill="#2A2A2A"/>
<path d="M12.764 25.386H9.886C9.443 25.386 9 25.054 9 24.5C9 24.057 9.333 23.614 9.886 23.614H12.765C13.208 23.614 13.65 23.946 13.65 24.5C13.65 25.054 13.208 25.386 12.765 25.386H12.764ZM37.122 25.386H34.243C33.8 25.386 33.358 25.054 33.358 24.5C33.358 24.057 33.69 23.614 34.243 23.614H37.122C37.565 23.614 38.008 23.946 38.008 24.5C37.897 25.054 37.565 25.386 37.122 25.386Z" fill="#2A2A2A"/>
<path d="M13.872 35.018C13.65 35.018 13.429 34.908 13.208 34.796C13.0487 34.6335 12.9594 34.4151 12.9594 34.1875C12.9594 33.9599 13.0487 33.7415 13.208 33.579L15.2 31.586C15.3625 31.4264 15.5812 31.3369 15.809 31.3369C16.0368 31.3369 16.2555 31.4264 16.418 31.586C16.5776 31.7485 16.6671 31.9672 16.6671 32.195C16.6671 32.4228 16.5776 32.6415 16.418 32.804L14.425 34.796C14.315 34.907 13.983 35.018 13.872 35.018ZM31.033 17.857C30.811 17.857 30.59 17.747 30.368 17.636C30.2084 17.4735 30.1189 17.2548 30.1189 17.027C30.1189 16.7992 30.2084 16.5805 30.368 16.418L32.361 14.425C32.5235 14.2654 32.7422 14.1759 32.97 14.1759C33.1978 14.1759 33.4165 14.2654 33.579 14.425C33.7386 14.5875 33.8281 14.8062 33.8281 15.034C33.8281 15.2618 33.7386 15.4805 33.579 15.643L31.586 17.636C31.4345 17.7743 31.238 17.8528 31.033 17.857Z" fill="#2A2A2A"/>
<path d="M15.864 17.857C15.644 17.857 15.422 17.747 15.2 17.636L13.208 15.643C13.0484 15.4805 12.9589 15.2618 12.9589 15.034C12.9589 14.8062 13.0484 14.5875 13.208 14.425C13.3705 14.2657 13.5889 14.1764 13.8165 14.1764C14.0441 14.1764 14.2625 14.2657 14.425 14.425L16.418 16.418C16.5776 16.5805 16.6671 16.7992 16.6671 17.027C16.6671 17.2548 16.5776 17.4735 16.418 17.636C16.308 17.746 16.197 17.857 15.865 17.857H15.864ZM33.136 35.018C32.915 35.018 32.693 34.908 32.472 34.796L30.479 32.804C30.3194 32.6415 30.2299 32.4228 30.2299 32.195C30.2299 31.9672 30.3194 31.7485 30.479 31.586C30.6415 31.4264 30.8602 31.3369 31.088 31.3369C31.3158 31.3369 31.5345 31.4264 31.697 31.586L33.69 33.579C33.8493 33.7415 33.9386 33.9599 33.9386 34.1875C33.9386 34.4151 33.8493 34.6335 33.69 34.796C33.5384 34.9348 33.3415 35.0138 33.136 35.018Z" fill="#2A2A2A"/>
</svg>
