<svg width="48" height="48" viewBox="0 0 48 48" fill="none" xmlns="http://www.w3.org/2000/svg">
<g clip-path="url(#clip0)">
<g filter="url(#filter0_f)">
<path d="M37.5 34H10.5C8.01472 34 6 36.0147 6 38.5C6 40.9853 8.01472 43 10.5 43H37.5C39.9853 43 42 40.9853 42 38.5C42 36.0147 39.9853 34 37.5 34Z" fill="white"/>
</g>
<path d="M34.135 19.58C33.1954 19.501 32.2494 19.5603 31.327 19.756C30.8146 18.0731 29.7651 16.6044 28.339 15.5745C26.9129 14.5446 25.1886 14.0102 23.43 14.053C19.482 14.053 16.41 16.51 15.972 19.668C15.6642 19.5897 15.346 19.5603 15.029 19.581H13.932C10.072 19.844 7 22.651 7 26.074C7 29.671 10.29 32.566 14.459 32.566H31.239C35.275 32.566 39.487 30.987 39.487 25.459C39.4927 23.9871 38.946 22.5666 37.9551 21.4783C36.9641 20.39 35.601 19.7129 34.135 19.581V19.58ZM37.732 26.249C37.293 30.373 32.906 30.724 31.59 30.724H14.305C12.638 30.724 9.128 29.32 8.821 26.688C8.75501 26.059 8.81828 25.4233 9.00693 24.8197C9.19557 24.2161 9.50561 23.6574 9.918 23.178C10.3738 22.6354 10.9359 22.192 11.5697 21.875C12.2035 21.558 12.8955 21.3742 13.603 21.335H14.503C15.1481 21.3092 15.7891 21.449 16.365 21.741C16.9409 22.0329 17.4325 22.4674 17.793 23.003C17.793 23.003 17.968 23.178 17.968 23.266C18.149 23.636 18.522 23.873 18.933 23.88C19.0817 23.8924 19.2305 23.8564 19.357 23.7773C19.4836 23.6981 19.5811 23.5802 19.635 23.441C19.7112 23.1765 19.7105 22.8958 19.633 22.6318C19.5554 22.3677 19.4042 22.1312 19.197 21.95C18.757 21.511 18.495 21.335 18.319 21.16C18.144 20.985 17.969 20.897 17.88 20.634C18.038 19.3022 18.6881 18.0777 19.7028 17.2008C20.7175 16.324 22.0234 15.8582 23.364 15.895C24.76 15.8633 26.1274 16.2935 27.2539 17.1185C28.3804 17.9436 29.203 19.1175 29.594 20.458C28.5601 20.8859 27.6581 21.5803 26.98 22.4704C26.3019 23.3605 25.8719 24.4145 25.734 25.525C25.558 26.315 25.821 26.929 26.435 27.017H26.699C27.313 27.017 27.576 26.227 27.664 25.613C27.8682 24.5299 28.3837 23.5297 29.1474 22.7349C29.9111 21.9402 30.8899 21.3852 31.964 21.138H32.753C33.4929 21.0884 34.2349 21.1957 34.9304 21.4529C35.6259 21.71 36.2593 22.1111 36.789 22.63C37.2273 23.1145 37.5435 23.6966 37.7114 24.328C37.8792 24.9594 37.8939 25.6218 37.754 26.26L37.732 26.249Z" fill="#2A2A2A"/>
<path d="M37.7363 26.26C37.2973 30.384 32.9103 30.735 31.5943 30.735H14.3093C12.6423 30.735 9.13233 29.331 8.82533 26.699C8.75935 26.07 8.82262 25.4343 9.01126 24.8307C9.19991 24.2271 9.50994 23.6684 9.92233 23.189C10.3781 22.6464 10.9403 22.203 11.574 21.886C12.2078 21.569 12.8998 21.3852 13.6073 21.346H14.5073C15.1525 21.3202 15.7935 21.46 16.3693 21.752C16.9452 22.0439 17.4368 22.4784 17.7973 23.014C17.7973 23.014 17.9723 23.189 17.9723 23.277C18.1533 23.647 18.5263 23.884 18.9373 23.891C19.0861 23.9034 19.2348 23.8674 19.3614 23.7883C19.4879 23.7091 19.5854 23.5912 19.6393 23.452C19.7156 23.1875 19.7149 22.9068 19.6373 22.6428C19.5597 22.3787 19.4085 22.1422 19.2013 21.961C18.7613 21.521 18.4993 21.346 18.3233 21.171C18.1483 20.995 17.9733 20.908 17.8843 20.645C18.0423 19.3132 18.6925 18.0887 19.7072 17.2118C20.7219 16.335 22.0278 15.8692 23.3683 15.906C24.7643 15.8743 26.1317 16.3045 27.2582 17.1295C28.3847 17.9546 29.2073 19.1285 29.5983 20.469C28.5644 20.8969 27.6624 21.5913 26.9843 22.4814C26.3062 23.3715 25.8763 24.4255 25.7383 25.536C25.5623 26.326 25.8253 26.94 26.4393 27.028H26.7033C27.3173 27.028 27.5803 26.238 27.6683 25.624C27.8726 24.5408 28.388 23.5407 29.1517 22.7459C29.9154 21.9512 30.8942 21.3962 31.9683 21.149H32.7573C33.4972 21.0994 34.2392 21.2067 34.9347 21.4639C35.6302 21.721 36.2636 22.1221 36.7933 22.641C37.2253 23.1268 37.536 23.708 37.7 24.3371C37.8639 24.9662 37.8763 25.6252 37.7363 26.26Z" fill="white"/>
<path d="M7.15401 41.209V35.813H9.12801C9.62401 35.803 10.119 35.865 10.598 35.999C11.01 36.106 11.388 36.317 11.694 36.614C11.919 36.841 12.091 37.114 12.199 37.414C12.4334 38.1265 12.4334 38.8954 12.199 39.608C12.0875 39.9036 11.9155 40.1727 11.694 40.398C11.3878 40.6943 11.0097 40.9059 10.597 41.012C10.1195 41.1502 9.62407 41.2166 9.12701 41.209H7.15501H7.15401ZM9.08401 39.959C9.35201 39.962 9.62001 39.94 9.88401 39.893C10.091 39.858 10.284 39.767 10.444 39.63C10.574 39.514 10.673 39.367 10.729 39.202C10.8779 38.7533 10.8779 38.2686 10.729 37.82C10.6708 37.6528 10.573 37.5022 10.444 37.381C10.2848 37.2439 10.0912 37.1529 9.88401 37.118C9.62005 37.0706 9.35217 37.0485 9.08401 37.052H8.60001V39.959H9.08301H9.08401ZM14.381 41.209H12.934V35.813H15.292C15.661 35.803 16.03 35.845 16.388 35.933C16.665 35.995 16.919 36.131 17.123 36.328C17.277 36.477 17.397 36.656 17.474 36.855C17.554 37.088 17.596 37.332 17.594 37.579C17.604 37.933 17.514 38.283 17.332 38.588C17.172 38.856 16.955 39.084 16.695 39.257L17.968 41.209H16.498C16.4513 41.2228 16.4017 41.2228 16.355 41.209C16.3144 41.1802 16.2809 41.1426 16.257 41.099L15.434 39.695C15.434 39.619 15.357 39.575 15.324 39.564C15.292 39.553 15.248 39.564 15.171 39.564H14.381V41.209ZM15.774 38.357C15.8319 38.3706 15.8921 38.3706 15.95 38.357C15.9981 38.3302 16.0392 38.2925 16.07 38.247C16.1178 38.162 16.1512 38.0698 16.169 37.974V37.688C16.1857 37.5974 16.1857 37.5045 16.169 37.414C16.1485 37.3372 16.1109 37.2661 16.059 37.206C15.9829 37.1445 15.8924 37.1032 15.796 37.086C15.6537 37.0724 15.5104 37.0724 15.368 37.086H14.436V38.423L15.774 38.357ZM19.931 41.209H18.483V35.813H19.931V41.209ZM22.19 38.226L22.497 37.864C22.597 37.744 22.706 37.623 22.805 37.524L23.079 37.217L23.299 37.008H20.589V35.813H25.195V36.625C25.2017 36.6868 25.2017 36.7492 25.195 36.811C25.159 36.871 25.119 36.931 25.075 36.986L23.572 38.786L23.276 39.126L22.98 39.466L22.706 39.772L22.486 40.014H25.25V41.209H20.567V40.419C20.5535 40.3614 20.5535 40.3015 20.567 40.244C20.5941 40.1765 20.6312 40.1134 20.677 40.057L22.19 38.226ZM27.312 38.226L27.608 37.864L27.915 37.524L28.201 37.217L28.409 37.008H25.711V35.813H30.317V36.625C30.3293 36.6864 30.3293 36.7496 30.317 36.811C30.2846 36.8742 30.2443 36.933 30.197 36.986L28.694 38.786L28.409 39.126L28.113 39.466L27.839 39.772L27.619 40.014H30.383V41.209H25.645V40.419C25.6376 40.3609 25.6376 40.3021 25.645 40.244L25.765 40.057L27.312 38.226ZM31.041 35.813H32.489V40.013H35.132V41.209H31.042L31.041 35.813ZM39.903 35.813V37.008H37.161V37.897H39.661V39.059H37.172V40.014H39.991V41.209H35.725V35.813H39.903Z" fill="#0F79BE"/>
</g>
<defs>
<filter id="filter0_f" x="0" y="28" width="48" height="21" filterUnits="userSpaceOnUse" color-interpolation-filters="sRGB">
<feFlood flood-opacity="0" result="BackgroundImageFix"/>
<feBlend mode="normal" in="SourceGraphic" in2="BackgroundImageFix" result="shape"/>
<feGaussianBlur stdDeviation="3" result="effect1_foregroundBlur"/>
</filter>
<clipPath id="clip0">
<rect width="48" height="48" fill="white"/>
</clipPath>
</defs>
</svg>
