<svg width="48" height="48" viewBox="0 0 48 48" fill="none" xmlns="http://www.w3.org/2000/svg">
<path d="M33.989 19.818C33.0548 19.7396 32.1141 19.7985 31.197 19.993C30.6874 18.319 29.6436 16.858 28.225 15.8335C26.8064 14.809 25.0913 14.2774 23.342 14.32C19.415 14.32 16.36 16.764 15.924 19.905C15.6178 19.827 15.3013 19.7976 14.986 19.818H13.895C10.055 20.08 7 22.873 7 26.276C7 29.855 10.273 32.735 14.418 32.735H31.109C35.124 32.735 39.313 31.164 39.313 25.665C39.3189 24.2008 38.7751 22.7877 37.7893 21.705C36.8035 20.6223 35.4474 19.949 33.989 19.818ZM37.568 26.451C37.131 30.553 32.768 30.901 31.458 30.901H14.266C12.608 30.901 9.116 29.505 8.811 26.887C8.74551 26.2616 8.8085 25.6295 8.99611 25.0293C9.18372 24.4292 9.49199 23.8737 9.902 23.397C10.3554 22.8573 10.9147 22.4162 11.5452 22.1009C12.1757 21.7856 12.8641 21.6029 13.568 21.564H14.462C15.1037 21.5382 15.7413 21.677 16.3142 21.9672C16.8871 22.2574 17.3762 22.6894 17.735 23.222C17.735 23.222 17.909 23.396 17.909 23.484C18.089 23.851 18.46 24.087 18.869 24.094C19.017 24.1067 19.1651 24.071 19.2911 23.9924C19.4171 23.9138 19.5143 23.7965 19.568 23.658C19.6437 23.3948 19.6428 23.1156 19.5654 22.8529C19.488 22.5902 19.3373 22.3551 19.131 22.175C18.695 21.738 18.433 21.564 18.258 21.389C18.084 21.215 17.909 21.127 17.822 20.865C17.9794 19.5406 18.6263 18.3229 19.6357 17.4511C20.645 16.5792 21.9438 16.1162 23.277 16.153C24.6654 16.1215 26.0253 16.5492 27.1457 17.3697C28.266 18.1903 29.0842 19.3578 29.473 20.691C28.4445 21.1166 27.5472 21.8073 26.8727 22.6926C26.1981 23.578 25.7703 24.6264 25.633 25.731C25.458 26.516 25.72 27.127 26.331 27.215H26.593C27.203 27.215 27.466 26.429 27.553 25.818C27.7563 24.741 28.269 23.7466 29.0283 22.9563C29.7877 22.166 30.761 21.6141 31.829 21.368H32.615C34.103 21.268 35.564 21.808 36.629 22.851C37.0649 23.3328 37.3794 23.9118 37.5464 24.5397C37.7134 25.1676 37.728 25.8263 37.589 26.461L37.568 26.451Z" fill="#2A2A2A"/>
<path d="M37.5863 26.462C37.1493 30.564 32.7863 30.912 31.4763 30.912H14.2843C12.6263 30.912 9.1343 29.516 8.8293 26.898C8.76381 26.2727 8.8268 25.6405 9.01441 25.0404C9.20202 24.4402 9.51029 23.8847 9.9203 23.408C10.3737 22.8683 10.933 22.4272 11.5635 22.1119C12.194 21.7967 12.8824 21.6139 13.5863 21.575H14.4803C15.122 21.5492 15.7596 21.688 16.3325 21.9782C16.9054 22.2684 17.3945 22.7004 17.7533 23.233C17.7533 23.233 17.9273 23.407 17.9273 23.495C18.1073 23.862 18.4783 24.098 18.8873 24.105C19.0353 24.1177 19.1834 24.082 19.3094 24.0034C19.4354 23.9248 19.5326 23.8075 19.5863 23.669C19.6622 23.4057 19.6614 23.1262 19.584 22.8634C19.5066 22.6005 19.3558 22.3652 19.1493 22.185C18.7133 21.749 18.4513 21.575 18.2763 21.4C18.1023 21.225 17.9273 21.138 17.8403 20.876C17.9977 19.5516 18.6446 18.3339 19.654 17.4621C20.6633 16.5902 21.9621 16.1272 23.2953 16.164C24.6837 16.1325 26.0436 16.5602 27.164 17.3808C28.2844 18.2013 29.1025 19.3688 29.4913 20.702C28.4628 21.1276 27.5655 21.8183 26.891 22.7037C26.2164 23.589 25.7886 24.6375 25.6513 25.742C25.4763 26.527 25.7383 27.138 26.3493 27.225H26.6113C27.2213 27.225 27.4843 26.44 27.5713 25.829C27.7746 24.752 28.2873 23.7576 29.0467 22.9673C29.806 22.177 30.7793 21.6251 31.8473 21.379H32.6333C34.1213 21.279 35.5823 21.818 36.6473 22.862C37.0773 23.3451 37.3866 23.9233 37.5498 24.5491C37.7131 25.1749 37.7256 25.8305 37.5863 26.462Z" fill="white"/>
<path d="M7.7383 24.007C6.72525 23.1534 5.99508 22.0125 5.6443 20.735C6.98356 20.6736 8.24823 20.1008 9.17772 19.1347C10.1072 18.1685 10.6307 16.8826 10.6403 15.542C10.6182 14.6647 10.4103 13.8021 10.0303 13.011C10.5957 12.8372 11.1838 12.7489 11.7753 12.749C12.7265 12.7526 13.6652 12.9655 14.5249 13.3727C15.3845 13.7799 16.1439 14.3713 16.7493 15.105C17.2063 15.681 17.4793 16.38 17.5353 17.113L19.1053 16.022C18.9715 15.2789 18.6399 14.5856 18.1453 14.015C17.3713 13.0633 16.3926 12.2983 15.2822 11.777C14.1717 11.2557 12.958 10.9915 11.7313 11.004C10.0693 10.9818 8.44548 11.5025 7.1063 12.487C7.77067 12.8752 8.2892 13.4709 8.58222 14.1824C8.87523 14.8939 8.92652 15.682 8.72821 16.4255C8.5299 17.169 8.09295 17.8268 7.48451 18.2979C6.87606 18.7689 6.12977 19.0272 5.3603 19.033C4.78097 19.0197 4.21294 18.8699 3.7023 18.596V19.12C3.67063 20.4097 3.96621 21.6863 4.56146 22.8309C5.15672 23.9754 6.03223 24.9504 7.1063 25.665C7.3023 25.753 7.8263 24.007 7.7383 24.007Z" fill="#2A2A2A"/>
<path d="M7.5753 23.844C8.18166 22.6727 9.08767 21.683 10.201 20.9758C11.3144 20.2685 12.5953 19.8691 13.9133 19.818H15.0033C15.3193 19.798 15.6363 19.828 15.9423 19.905C16.1163 18.715 16.6523 17.605 17.4803 16.731C17.3699 16.1386 17.1196 15.5812 16.7503 15.105C16.1448 14.3712 15.3852 13.7797 14.5254 13.3725C13.6656 12.9653 12.7267 12.7524 11.7753 12.749C11.1833 12.749 10.5953 12.837 10.0293 13.011C10.4093 13.801 10.6183 14.664 10.6403 15.541C10.631 16.8818 10.1076 18.168 9.17807 19.1343C8.24855 20.1007 6.98373 20.6736 5.6443 20.735C5.97895 21.9338 6.64845 23.0123 7.5743 23.844H7.5753Z" fill="white"/>
<path d="M15.078 40.7594C15.1944 42.1633 16.8192 42.9947 18.1582 42.5572C21.5787 41.4395 19.8146 36.5 19.8146 36.5C19.8146 36.5 14.835 37.8279 15.078 40.7594Z" fill="#0F79BE"/>
<path d="M22.078 39.7594C22.1944 41.1633 23.8192 41.9947 25.1582 41.5572C28.5787 40.4395 26.8146 35.5 26.8146 35.5C26.8146 35.5 21.835 36.8279 22.078 39.7594Z" fill="#0F79BE"/>
</svg>
