<svg width="48" height="48" viewBox="0 0 48 48" fill="none" xmlns="http://www.w3.org/2000/svg">
<path d="M34.214 19.57C33.2718 19.4907 32.323 19.55 31.398 19.746C30.8841 18.0582 29.8316 16.5852 28.4013 15.5522C26.971 14.5192 25.2418 13.9832 23.478 14.026C19.518 14.026 16.438 16.49 15.998 19.658C15.6892 19.5792 15.37 19.5495 15.052 19.57H13.952C10.08 19.834 7 22.65 7 26.082C7 29.69 10.3 32.594 14.48 32.594H31.31C35.358 32.594 39.582 31.01 39.582 25.466C39.5879 23.9896 39.0397 22.5647 38.0458 21.473C37.0518 20.3813 35.6845 19.7022 34.214 19.57ZM37.822 26.258C37.382 30.394 32.982 30.746 31.662 30.746H14.326C12.654 30.746 9.134 29.338 8.826 26.698C8.75979 26.0673 8.82322 25.4297 9.01238 24.8244C9.20154 24.2191 9.51245 23.6588 9.926 23.178C10.3832 22.6339 10.947 22.1892 11.5827 21.8713C12.2183 21.5535 12.9124 21.3693 13.622 21.33H14.524C15.171 21.304 15.8139 21.444 16.3915 21.7367C16.9692 22.0293 17.4623 22.4649 17.824 23.002C17.824 23.002 18 23.178 18 23.266C18.089 23.4478 18.2265 23.6015 18.3973 23.7102C18.5681 23.8189 18.7656 23.8783 18.968 23.882C19.1171 23.8945 19.2663 23.8584 19.3932 23.7791C19.5201 23.6998 19.6179 23.5815 19.672 23.442C19.7485 23.1766 19.7478 22.8949 19.6699 22.6299C19.5919 22.3649 19.44 22.1277 19.232 21.946C18.792 21.506 18.528 21.33 18.352 21.154C18.176 20.978 18 20.89 17.912 20.626C18.0707 19.2906 18.7229 18.0627 19.7405 17.1834C20.7581 16.3042 22.0677 15.8372 23.412 15.874C24.812 15.8422 26.1833 16.2735 27.3131 17.1009C28.4429 17.9284 29.2679 19.1057 29.66 20.45C28.6229 20.8791 27.7181 21.5755 27.0379 22.4683C26.3577 23.361 25.9264 24.4182 25.788 25.532C25.612 26.324 25.876 26.94 26.492 27.028H26.756C27.372 27.028 27.636 26.236 27.724 25.62C27.9288 24.5338 28.4458 23.5309 29.2116 22.7338C29.9774 21.9367 30.9589 21.3801 32.036 21.132H32.828C33.57 21.0822 34.3142 21.1897 35.0118 21.4475C35.7094 21.7054 36.3447 22.1076 36.876 22.628C37.3157 23.1139 37.6329 23.6979 37.8013 24.3312C37.9697 24.9645 37.9843 25.6289 37.844 26.269L37.822 26.258Z" fill="#2A2A2A"/>
<path d="M37.822 26.27C37.382 30.405 32.982 30.757 31.662 30.757H14.326C12.654 30.757 9.13399 29.349 8.82599 26.709C8.75979 26.0783 8.82321 25.4407 9.01237 24.8354C9.20153 24.2301 9.51244 23.6698 9.92599 23.189C10.3832 22.6449 10.947 22.2002 11.5827 21.8823C12.2183 21.5645 12.9124 21.3803 13.622 21.341H14.524C15.171 21.315 15.8139 21.455 16.3915 21.7477C16.9691 22.0403 17.4623 22.4759 17.824 23.013C17.824 23.013 18 23.189 18 23.277C18.089 23.4588 18.2265 23.6125 18.3973 23.7212C18.5681 23.8299 18.7656 23.8893 18.968 23.893C19.1171 23.9055 19.2663 23.8694 19.3932 23.7901C19.5201 23.7108 19.6179 23.5925 19.672 23.453C19.7485 23.1876 19.7478 22.9059 19.6699 22.6409C19.5919 22.3759 19.44 22.1387 19.232 21.957C18.792 21.517 18.528 21.341 18.352 21.165C18.176 20.989 18 20.901 17.912 20.637C18.0707 19.3016 18.7229 18.0737 19.7405 17.1944C20.7581 16.3152 22.0677 15.8482 23.412 15.885C24.812 15.8532 26.1833 16.2845 27.3131 17.1119C28.4429 17.9394 29.2679 19.1167 29.66 20.461C28.6229 20.8901 27.7181 21.5865 27.0379 22.4793C26.3577 23.372 25.9264 24.4292 25.788 25.543C25.612 26.335 25.876 26.951 26.492 27.039H26.756C27.372 27.039 27.636 26.247 27.724 25.631C27.9288 24.5448 28.4458 23.5419 29.2116 22.7448C29.9774 21.9477 30.9589 21.3911 32.036 21.143H32.828C33.57 21.0932 34.3142 21.2007 35.0118 21.4585C35.7094 21.7164 36.3447 22.1186 36.876 22.639C37.756 23.627 38.106 24.977 37.822 26.269V26.27Z" fill="#828190"/>
<path d="M15.078 40.7594C15.1944 42.1633 16.8192 42.9947 18.1582 42.5572C21.5787 41.4395 19.8146 36.5 19.8146 36.5C19.8146 36.5 14.835 37.8279 15.078 40.7594Z" fill="#0F79BE"/>
<path d="M22.078 39.7594C22.1944 41.1633 23.8192 41.9947 25.1582 41.5572C28.5787 40.4395 26.8146 35.5 26.8146 35.5C26.8146 35.5 21.835 36.8279 22.078 39.7594Z" fill="#0F79BE"/>
</svg>
