<svg width="48" height="48" viewBox="0 0 48 48" fill="none" xmlns="http://www.w3.org/2000/svg">
<g clip-path="url(#clip0)">
<path d="M38.382 26.558C38.123 26.558 38.037 24.922 38.037 24.922C38.7382 24.3527 39.2978 23.6283 39.6715 22.806C40.0453 21.9836 40.2231 21.0858 40.191 20.183C40.1884 18.5194 39.5279 16.9244 38.3536 15.746C37.1793 14.5676 35.5866 13.9015 33.923 13.893C32.9749 13.8948 32.0396 14.113 31.1887 14.5312C30.3378 14.9494 29.5936 15.5565 29.013 16.306C28.753 16.651 28.409 17.254 28.065 16.996C27.892 16.823 27.289 16.736 27.203 16.306C27.117 15.876 27.633 15.445 27.72 15.229C28.4689 14.2798 29.4224 13.5118 30.5094 12.9823C31.5964 12.4528 32.7889 12.1755 33.998 12.171C36.0832 12.1652 38.0858 12.9857 39.5673 14.453C41.0489 15.9203 41.8887 17.9149 41.903 20C41.894 21.1847 41.6272 22.3531 41.1212 23.4243C40.6153 24.4954 39.8822 25.4436 38.973 26.203C38.9033 26.2988 38.8151 26.3796 38.7136 26.4406C38.612 26.5016 38.4993 26.5415 38.382 26.558ZM33.977 10.62C33.7484 10.62 33.5291 10.5292 33.3675 10.3676C33.2058 10.2059 33.115 9.98666 33.115 9.75804V6.91504C33.1226 6.69164 33.2167 6.47993 33.3774 6.32458C33.5382 6.16923 33.753 6.0824 33.9765 6.0824C34.2 6.0824 34.4148 6.16923 34.5756 6.32458C34.7363 6.47993 34.8304 6.69164 34.838 6.91504V9.75804C34.8128 9.97781 34.7141 10.1826 34.5577 10.3391C34.4014 10.4956 34.1967 10.5946 33.977 10.62ZM47.17 21.077H44.326C44.0976 21.0768 43.8786 20.9858 43.7171 20.8242C43.5557 20.6626 43.465 20.4435 43.465 20.215C43.4592 20.1076 43.4747 20 43.5105 19.8986C43.5463 19.7971 43.6018 19.7037 43.6738 19.6237C43.7458 19.5437 43.8329 19.4787 43.93 19.4325C44.0272 19.3862 44.1325 19.3595 44.24 19.354H47.17C47.645 19.354 48.03 19.74 48.03 20.215C48.0373 20.3211 48.0237 20.4276 47.9898 20.5284C47.9559 20.6292 47.9024 20.7223 47.8324 20.8024C47.7625 20.8824 47.6774 20.9479 47.5821 20.9951C47.4868 21.0422 47.3831 21.0701 47.277 21.077H47.169H47.17ZM41.31 13.635C41.0832 13.6316 40.8669 13.5389 40.708 13.377C40.6309 13.3 40.5697 13.2085 40.528 13.1077C40.4863 13.007 40.4648 12.8991 40.4648 12.79C40.4648 12.681 40.4863 12.5731 40.528 12.4723C40.5697 12.3716 40.6309 12.2801 40.708 12.203L42.689 10.222C42.7512 10.1287 42.8311 10.0485 42.9243 9.986C43.0175 9.92353 43.1221 9.88003 43.2321 9.85797C43.3421 9.83592 43.4553 9.83575 43.5654 9.85746C43.6754 9.87918 43.7801 9.92236 43.8735 9.98454C43.9669 10.0467 44.0471 10.1267 44.1095 10.2199C44.172 10.313 44.2155 10.4176 44.2376 10.5276C44.2596 10.6376 44.2598 10.7509 44.2381 10.8609C44.2164 10.971 44.1732 11.0757 44.111 11.169C44.056 11.2563 43.9822 11.3301 43.895 11.385L41.914 13.366C41.7536 13.528 41.5386 13.6243 41.311 13.636L41.31 13.635ZM26.578 13.635C26.3509 13.6319 26.1342 13.5391 25.975 13.377L23.994 11.385C23.8383 11.2227 23.7514 11.0065 23.7514 10.7815C23.7514 10.5566 23.8383 10.3404 23.994 10.178C24.073 10.0985 24.1669 10.0354 24.2704 9.99235C24.3739 9.94929 24.4849 9.92712 24.597 9.92712C24.7091 9.92712 24.8201 9.94929 24.9236 9.99235C25.027 10.0354 25.121 10.0985 25.2 10.178L27.182 12.16C27.3333 12.3115 27.4183 12.5169 27.4183 12.731C27.4183 12.9452 27.3333 13.1505 27.182 13.302C27.1121 13.3987 27.0217 13.4787 26.9173 13.5362C26.8129 13.5938 26.697 13.6275 26.578 13.635ZM43.292 30.35C43.0646 30.3463 42.8478 30.2529 42.689 30.09L40.708 28.11C40.5718 27.9306 40.5112 27.705 40.5392 27.4815C40.5672 27.2579 40.6817 27.0543 40.858 26.914C41.0091 26.7879 41.1997 26.7187 41.3965 26.7187C41.5933 26.7187 41.7839 26.7879 41.935 26.914L43.917 28.895C44.0683 29.0465 44.1533 29.2519 44.1533 29.466C44.1533 29.6802 44.0683 29.8855 43.917 30.037C43.8439 30.1337 43.7495 30.2122 43.6411 30.2663C43.5326 30.3204 43.4132 30.3487 43.292 30.349V30.35Z" fill="#2A2A2A"/>
<path d="M33.643 20C32.7205 19.9223 31.7916 19.9802 30.886 20.172C30.3829 18.5198 29.3525 17.0778 27.9525 16.0666C26.5524 15.0553 24.8596 14.5303 23.133 14.572C19.256 14.572 16.24 16.985 15.81 20.086C15.5074 20.0089 15.1946 19.9798 14.883 20H13.806C10.016 20.258 7 23.015 7 26.375C7 29.908 10.231 32.751 14.323 32.751H30.8C34.763 32.751 38.899 31.2 38.899 25.772C38.9048 24.3266 38.368 22.9315 37.3948 21.8627C36.4215 20.794 35.0827 20.1292 33.643 20ZM37.176 26.548C36.745 30.597 32.437 30.942 31.145 30.942H14.173C12.536 30.942 9.09 29.563 8.788 26.978C8.72319 26.3606 8.7853 25.7364 8.9705 25.1438C9.15571 24.5512 9.46011 24.0027 9.865 23.532C10.3126 22.9994 10.8645 22.5641 11.4867 22.253C12.109 21.9419 12.7884 21.7615 13.483 21.723H14.366C14.9995 21.6975 15.629 21.8346 16.1945 22.1211C16.7601 22.4076 17.2429 22.8342 17.597 23.36C17.597 23.36 17.77 23.532 17.77 23.618C17.947 23.981 18.313 24.214 18.717 24.222C19.017 24.247 19.297 24.072 19.407 23.791C19.4819 23.5311 19.4812 23.2553 19.4048 22.9958C19.3285 22.7363 19.1797 22.504 18.976 22.326C18.545 21.896 18.286 21.723 18.114 21.551C17.942 21.378 17.77 21.292 17.684 21.034C17.8394 19.7268 18.4779 18.5248 19.474 17.6641C20.4701 16.8034 21.752 16.3461 23.068 16.382C24.4386 16.351 25.7812 16.7732 26.8873 17.5833C27.9933 18.3934 28.801 19.5459 29.185 20.862C28.1699 21.2822 27.2843 21.964 26.6185 22.838C25.9527 23.7119 25.5305 24.7468 25.395 25.837C25.222 26.612 25.48 27.215 26.083 27.302H26.342C26.945 27.302 27.203 26.526 27.29 25.923C27.4905 24.8597 27.9965 23.8778 28.7462 23.0975C29.4958 22.3171 30.4566 21.7721 31.511 21.529H32.286C33.0126 21.4803 33.7414 21.5855 34.4245 21.838C35.1076 22.0905 35.7297 22.4844 36.25 22.994C36.6802 23.4698 36.9906 24.0414 37.1553 24.6613C37.32 25.2812 37.3343 25.9315 37.197 26.558L37.176 26.548Z" fill="#2A2A2A"/>
<path d="M37.2129 26.558C36.7819 30.608 32.4739 30.952 31.1819 30.952H14.2099C12.5729 30.952 9.12689 29.574 8.82489 26.989C8.76008 26.3716 8.82219 25.7474 9.00739 25.1548C9.1926 24.5622 9.497 24.0137 9.90189 23.543C10.3494 23.0102 10.9013 22.5748 11.5235 22.2635C12.1458 21.9522 12.8252 21.7717 13.5199 21.733H14.4029C15.0365 21.7076 15.666 21.8448 16.2316 22.1315C16.7971 22.4183 17.2799 22.845 17.6339 23.371C17.6339 23.371 17.8069 23.543 17.8069 23.629C17.9839 23.992 18.3499 24.225 18.7539 24.232C19.0539 24.257 19.3339 24.082 19.4439 23.802C19.5188 23.5421 19.5181 23.2663 19.4417 23.0068C19.3654 22.7473 19.2166 22.515 19.0129 22.337C18.5819 21.907 18.3229 21.734 18.1509 21.562C17.9789 21.389 17.8069 21.303 17.7209 21.045C17.8761 19.7376 18.5144 18.5354 19.5106 17.6745C20.5068 16.8136 21.7888 16.3562 23.1049 16.392C24.4755 16.361 25.8181 16.7832 26.9241 17.5933C28.0302 18.4034 28.8379 19.5559 29.2219 20.872C28.2066 21.2923 27.3209 21.9743 26.6551 22.8484C25.9894 23.7225 25.5673 24.7576 25.4319 25.848C25.2589 26.623 25.5169 27.226 26.1199 27.312H26.3789C26.9819 27.312 27.2399 26.537 27.3269 25.934C27.5274 24.8707 28.0334 23.8888 28.783 23.1085C29.5327 22.3281 30.4934 21.7831 31.5479 21.54H32.3229C33.0495 21.4913 33.7783 21.5965 34.4614 21.849C35.1445 22.1015 35.7666 22.4954 36.2869 23.005C37.1469 23.972 37.4919 25.294 37.2129 26.558Z" fill="white"/>
<path d="M30.961 20.183C31.8661 19.9877 32.795 19.926 33.718 20C34.8753 20.0942 35.9761 20.5398 36.8731 21.277C37.7701 22.0142 38.4204 23.0079 38.737 24.125C39.6546 23.016 40.137 21.6108 40.094 20.172C40.0911 18.5086 39.4305 16.9138 38.2562 15.7356C37.082 14.5575 35.4894 13.8915 33.826 13.883C32.8779 13.8846 31.9428 14.1028 31.0918 14.5208C30.2409 14.9388 29.4967 15.5457 28.916 16.295L28.7 16.597C29.7784 17.5538 30.5626 18.7975 30.961 20.183Z" fill="#EF9D33"/>
<path d="M23.692 41.332C23.5161 41.2226 23.3848 41.0542 23.3218 40.8568C23.2588 40.6595 23.2681 40.4462 23.348 40.255L26.018 35.689C26.1271 35.5063 26.3022 35.3725 26.5071 35.3152C26.712 35.2579 26.9311 35.2815 27.1191 35.3811C27.3072 35.4807 27.4498 35.6487 27.5175 35.8504C27.5852 36.0521 27.5729 36.2722 27.483 36.465L24.813 41.031C24.7032 41.2066 24.5318 41.3349 24.3324 41.3906C24.1329 41.4463 23.9198 41.4254 23.735 41.332H23.692Z" fill="#828190"/>
<path d="M26.385 41.3321C26.298 41.2461 26.126 41.1601 26.04 40.9881L23.37 36.4221C23.2768 36.2374 23.256 36.0247 23.3115 35.8255C23.367 35.6263 23.4948 35.4549 23.67 35.3451C23.8525 35.2454 24.0663 35.2199 24.2671 35.274C24.4679 35.328 24.6401 35.4573 24.748 35.6351L27.462 40.2121C27.5191 40.2977 27.5584 40.394 27.5774 40.4952C27.5965 40.5964 27.5949 40.7004 27.5727 40.801C27.5506 40.9016 27.5084 40.9966 27.4486 41.0805C27.3889 41.1644 27.3128 41.2353 27.225 41.2891H27.16C26.913 41.3881 26.64 41.4031 26.385 41.3321Z" fill="#828190"/>
<path d="M22.314 39.0061C22.1819 38.9246 22.0729 38.8105 21.9976 38.6748C21.9223 38.5391 21.8832 38.3863 21.884 38.231C21.884 38.0028 21.9745 37.7838 22.1358 37.6222C22.297 37.4606 22.5157 37.3696 22.744 37.369H28.129C28.3524 37.3767 28.5641 37.4708 28.7195 37.6315C28.8748 37.7922 28.9616 38.007 28.9616 38.2305C28.9616 38.4541 28.8748 38.6689 28.7195 38.8296C28.5641 38.9903 28.3524 39.0844 28.129 39.092H22.745C22.5962 39.1021 22.4475 39.0725 22.314 39.0061Z" fill="#828190"/>
<path d="M15.0764 41.7594C15.1928 43.1633 16.8176 43.9947 18.1566 43.5572C21.5771 42.4395 19.813 37.5 19.813 37.5C19.813 37.5 14.8334 38.8279 15.0764 41.7594Z" fill="#0F79BE"/>
</g>
<defs>
<clipPath id="clip0">
<rect width="48" height="48" fill="white"/>
</clipPath>
</defs>
</svg>
