<svg width="48" height="48" viewBox="0 0 48 48" fill="none" xmlns="http://www.w3.org/2000/svg">
<path d="M34.214 19.6C33.2718 19.5206 32.323 19.5799 31.398 19.776C30.8841 18.0882 29.8316 16.6151 28.4013 15.5822C26.971 14.5492 25.2418 14.0131 23.478 14.056C19.518 14.056 16.438 16.52 15.998 19.688C15.6892 19.6092 15.37 19.5795 15.052 19.6H13.952C10.08 19.864 7 22.68 7 26.112C7 29.72 10.3 32.624 14.48 32.624H31.31C35.358 32.624 39.582 31.04 39.582 25.496C39.5879 24.0196 39.0397 22.5947 38.0458 21.503C37.0518 20.4113 35.6845 19.7322 34.214 19.6ZM37.822 26.288C37.382 30.424 32.982 30.776 31.662 30.776H14.326C12.654 30.776 9.134 29.368 8.826 26.728C8.75979 26.0973 8.82322 25.4597 9.01238 24.8543C9.20154 24.249 9.51245 23.6888 9.926 23.208C10.3832 22.6638 10.947 22.2191 11.5827 21.9013C12.2183 21.5835 12.9124 21.3992 13.622 21.36H14.524C15.171 21.334 15.8139 21.474 16.3915 21.7666C16.9692 22.0593 17.4623 22.4949 17.824 23.032C17.824 23.032 18 23.208 18 23.296C18.089 23.4778 18.2265 23.6315 18.3973 23.7402C18.5681 23.8489 18.7656 23.9083 18.968 23.912C19.1171 23.9245 19.2663 23.8884 19.3932 23.8091C19.5201 23.7297 19.6179 23.6115 19.672 23.472C19.7485 23.2066 19.7478 22.9249 19.6699 22.6599C19.5919 22.3949 19.44 22.1577 19.232 21.976C18.792 21.536 18.528 21.36 18.352 21.184C18.176 21.008 18 20.92 17.912 20.656C18.0707 19.3205 18.7229 18.0926 19.7405 17.2134C20.7581 16.3342 22.0677 15.8671 23.412 15.904C24.812 15.8722 26.1833 16.3035 27.3131 17.1309C28.4429 17.9583 29.2679 19.1356 29.66 20.48C28.6229 20.9091 27.7181 21.6055 27.0379 22.4983C26.3577 23.391 25.9264 24.4482 25.788 25.562C25.612 26.354 25.876 26.97 26.492 27.058H26.756C27.372 27.058 27.636 26.266 27.724 25.65C27.9288 24.5638 28.4458 23.5608 29.2116 22.7638C29.9774 21.9667 30.9589 21.4101 32.036 21.162H32.828C33.57 21.1122 34.3142 21.2197 35.0118 21.4775C35.7094 21.7353 36.3447 22.1376 36.876 22.658C37.3157 23.1439 37.6329 23.7278 37.8013 24.3612C37.9697 24.9945 37.9843 25.6588 37.844 26.299L37.822 26.288Z" fill="#2A2A2A"/>
<path d="M37.822 26.299C37.382 30.435 32.982 30.787 31.662 30.787H14.326C12.654 30.787 9.13399 29.379 8.82599 26.739C8.75979 26.1083 8.82321 25.4707 9.01237 24.8653C9.20153 24.26 9.51244 23.6998 9.92599 23.219C10.3832 22.6748 10.947 22.2302 11.5827 21.9123C12.2183 21.5945 12.9124 21.4102 13.622 21.371H14.524C15.171 21.345 15.8139 21.485 16.3915 21.7776C16.9691 22.0703 17.4623 22.5059 17.824 23.043C17.824 23.043 18 23.219 18 23.307C18.089 23.4888 18.2265 23.6425 18.3973 23.7512C18.5681 23.8599 18.7656 23.9193 18.968 23.923C19.1171 23.9355 19.2663 23.8994 19.3932 23.8201C19.5201 23.7407 19.6179 23.6225 19.672 23.483C19.7485 23.2176 19.7478 22.9359 19.6699 22.6709C19.5919 22.4059 19.44 22.1687 19.232 21.987C18.792 21.547 18.528 21.371 18.352 21.195C18.176 21.019 18 20.931 17.912 20.667C18.0707 19.3315 18.7229 18.1036 19.7405 17.2244C20.7581 16.3452 22.0677 15.8781 23.412 15.915C24.812 15.8832 26.1833 16.3145 27.3131 17.1419C28.4429 17.9694 29.2679 19.1466 29.66 20.491C28.6229 20.9201 27.7181 21.6165 27.0379 22.5093C26.3577 23.402 25.9264 24.4592 25.788 25.573C25.612 26.365 25.876 26.981 26.492 27.069H26.756C27.372 27.069 27.636 26.277 27.724 25.661C27.9288 24.5748 28.4458 23.5718 29.2116 22.7748C29.9774 21.9777 30.9589 21.4211 32.036 21.173H32.828C33.57 21.1232 34.3142 21.2307 35.0118 21.4885C35.7094 21.7463 36.3447 22.1486 36.876 22.669C37.756 23.657 38.106 25.007 37.822 26.299Z" fill="#C3C5C7"/>
<path d="M23.874 41.368C23.6943 41.2563 23.5601 41.0843 23.4956 40.8827C23.4311 40.6812 23.4405 40.4633 23.522 40.268L26.25 35.604C26.3599 35.4146 26.5388 35.2752 26.7493 35.2149C26.9597 35.1546 27.1854 35.1781 27.3789 35.2806C27.5723 35.383 27.7186 35.5564 27.7871 35.7643C27.8555 35.9723 27.8408 36.1986 27.746 36.396L25.018 41.06C24.9079 41.2413 24.733 41.374 24.5288 41.4311C24.3246 41.4883 24.1062 41.4658 23.918 41.368H23.874Z" fill="#828190"/>
<path d="M26.624 41.368C26.536 41.28 26.36 41.192 26.272 41.016L23.544 36.352C23.4488 36.1633 23.4277 35.9458 23.4847 35.7422C23.5417 35.5387 23.6727 35.3638 23.852 35.252C23.9477 35.1951 24.0539 35.158 24.1642 35.1427C24.2745 35.1274 24.3867 35.1343 24.4943 35.163C24.6019 35.1917 24.7027 35.2416 24.7907 35.3098C24.8788 35.3779 24.9523 35.463 25.007 35.56V35.615L27.724 40.224C27.7806 40.3141 27.8181 40.4149 27.8344 40.5201C27.8506 40.6253 27.8452 40.7327 27.8184 40.8357C27.7916 40.9387 27.744 41.0352 27.6786 41.1191C27.6132 41.2031 27.5313 41.2728 27.438 41.324H27.372C27.133 41.415 26.872 41.431 26.624 41.368Z" fill="#828190"/>
<path d="M22.466 38.992C22.3308 38.9089 22.2193 38.7923 22.1423 38.6536C22.0652 38.5149 22.0252 38.3587 22.026 38.2C22.026 37.9666 22.1187 37.7427 22.2837 37.5777C22.4488 37.4127 22.6726 37.32 22.906 37.32H28.406C28.6394 37.32 28.8632 37.4127 29.0283 37.5777C29.1933 37.7427 29.286 37.9666 29.286 38.2C29.286 38.4334 29.1933 38.6572 29.0283 38.8222C28.8632 38.9873 28.6394 39.08 28.406 39.08H22.906C22.7542 39.0892 22.6026 39.0588 22.466 38.992Z" fill="#828190"/>
<path d="M15.0764 41.7594C15.1928 43.1633 16.8176 43.9947 18.1566 43.5572C21.5771 42.4395 19.813 37.5 19.813 37.5C19.813 37.5 14.8334 38.8279 15.0764 41.7594Z" fill="#0F79BE"/>
</svg>
