<svg width="48" height="48" viewBox="0 0 48 48" fill="none" xmlns="http://www.w3.org/2000/svg">
<g clip-path="url(#clip0)">
<g filter="url(#filter0_f)">
<path d="M30.0713 34H16.0713C13.586 34 11.5713 36.0147 11.5713 38.5C11.5713 40.9853 13.586 43 16.0713 43H30.0713C32.5566 43 34.5713 40.9853 34.5713 38.5C34.5713 36.0147 32.5566 34 30.0713 34Z" fill="white"/>
</g>
<path d="M33.989 19.818C33.0548 19.7395 32.1141 19.7985 31.197 19.993C30.6874 18.319 29.6436 16.858 28.225 15.8335C26.8064 14.809 25.0913 14.2774 23.342 14.32C19.415 14.32 16.36 16.764 15.924 19.905C15.6178 19.8269 15.3013 19.7976 14.986 19.818H13.895C10.055 20.08 7 22.873 7 26.276C7 29.855 10.273 32.735 14.418 32.735H31.109C35.124 32.735 39.313 31.164 39.313 25.665C39.3189 24.2008 38.7751 22.7876 37.7893 21.705C36.8035 20.6223 35.4474 19.9489 33.989 19.818ZM37.568 26.451C37.131 30.553 32.768 30.901 31.458 30.901H14.266C12.608 30.901 9.116 29.505 8.811 26.887C8.74551 26.2616 8.8085 25.6295 8.99611 25.0293C9.18372 24.4292 9.49199 23.8737 9.902 23.397C10.3554 22.8572 10.9147 22.4161 11.5452 22.1009C12.1757 21.7856 12.8641 21.6029 13.568 21.564H14.462C15.1037 21.5382 15.7413 21.677 16.3142 21.9672C16.8871 22.2574 17.3762 22.6894 17.735 23.222C17.735 23.222 17.909 23.396 17.909 23.484C18.089 23.851 18.46 24.087 18.869 24.094C19.017 24.1066 19.1651 24.071 19.2911 23.9924C19.4171 23.9138 19.5143 23.7964 19.568 23.658C19.6437 23.3948 19.6428 23.1155 19.5654 22.8529C19.488 22.5902 19.3373 22.355 19.131 22.175C18.695 21.738 18.433 21.564 18.258 21.389C18.084 21.215 17.909 21.127 17.822 20.865C17.9794 19.5406 18.6263 18.3229 19.6357 17.451C20.645 16.5792 21.9438 16.1162 23.277 16.153C24.6654 16.1214 26.0253 16.5492 27.1457 17.3697C28.266 18.1903 29.0842 19.3578 29.473 20.691C28.4445 21.1166 27.5472 21.8072 26.8727 22.6926C26.1981 23.578 25.7703 24.6264 25.633 25.731C25.458 26.516 25.72 27.127 26.331 27.215H26.593C27.203 27.215 27.466 26.429 27.553 25.818C27.7563 24.741 28.269 23.7465 29.0283 22.9562C29.7877 22.1659 30.761 21.614 31.829 21.368H32.615C34.103 21.268 35.564 21.808 36.629 22.851C37.0649 23.3328 37.3794 23.9117 37.5464 24.5397C37.7134 25.1676 37.728 25.8263 37.589 26.461L37.568 26.451Z" fill="#2A2A2A"/>
<path d="M37.5863 26.462C37.1493 30.564 32.7863 30.912 31.4763 30.912H14.2843C12.6263 30.912 9.1343 29.516 8.8293 26.898C8.76381 26.2726 8.8268 25.6405 9.01441 25.0403C9.20202 24.4402 9.51029 23.8847 9.9203 23.408C10.3737 22.8682 10.933 22.4271 11.5635 22.1119C12.194 21.7966 12.8824 21.6139 13.5863 21.575H14.4803C15.122 21.5492 15.7596 21.688 16.3325 21.9782C16.9054 22.2684 17.3945 22.7004 17.7533 23.233C17.7533 23.233 17.9273 23.407 17.9273 23.495C18.1073 23.862 18.4783 24.098 18.8873 24.105C19.0353 24.1176 19.1834 24.082 19.3094 24.0034C19.4354 23.9248 19.5326 23.8074 19.5863 23.669C19.6622 23.4057 19.6614 23.1262 19.584 22.8633C19.5066 22.6004 19.3558 22.3651 19.1493 22.185C18.7133 21.749 18.4513 21.575 18.2763 21.4C18.1023 21.225 17.9273 21.138 17.8403 20.876C17.9977 19.5516 18.6446 18.3339 19.654 17.462C20.6633 16.5902 21.9621 16.1272 23.2953 16.164C24.6837 16.1324 26.0436 16.5602 27.164 17.3807C28.2844 18.2013 29.1025 19.3688 29.4913 20.702C28.4628 21.1276 27.5655 21.8182 26.891 22.7036C26.2164 23.589 25.7886 24.6374 25.6513 25.742C25.4763 26.527 25.7383 27.138 26.3493 27.225H26.6113C27.2213 27.225 27.4843 26.44 27.5713 25.829C27.7746 24.752 28.2873 23.7575 29.0467 22.9672C29.806 22.1769 30.7793 21.625 31.8473 21.379H32.6333C34.1213 21.279 35.5823 21.818 36.6473 22.862C37.0773 23.3451 37.3866 23.9232 37.5498 24.549C37.7131 25.1748 37.7256 25.8304 37.5863 26.462Z" fill="#C3C5C7"/>
<path d="M17.9933 38.985H15.8113V41.167H14.4153V35.822H15.8553V37.807H18.0363V35.767H19.4663V41.113H17.9933V38.985ZM21.8213 35.767H23.3493L23.4153 35.877L25.5423 41.102H24.0693C24.0693 41.102 24.0153 41.102 23.9933 41.004L23.7093 40.229H21.5273L21.2663 41.004C21.2732 41.0194 21.2768 41.0361 21.2768 41.053C21.2768 41.0699 21.2732 41.0866 21.2663 41.102H19.8153L21.8223 35.767H21.8213ZM22.5863 37.131C22.5418 37.33 22.487 37.5266 22.4223 37.72C22.3463 37.97 22.2363 38.276 22.1063 38.647L21.9643 39.105H23.2733L23.1093 38.647C22.9563 38.255 22.8473 37.938 22.7603 37.698C22.6934 37.5127 22.6386 37.3233 22.5963 37.131H22.5863ZM27.3863 41.113H25.9563V35.767H27.3863V41.113ZM28.2473 35.767H29.6873V39.924H32.3063V41.113H28.2473V35.767ZM7.7383 24.007C6.72525 23.1534 5.99508 22.0124 5.6443 20.735C6.98356 20.6736 8.24823 20.1008 9.17772 19.1346C10.1072 18.1685 10.6307 16.8826 10.6403 15.542C10.6182 14.6647 10.4103 13.802 10.0303 13.011C10.5957 12.8372 11.1838 12.7489 11.7753 12.749C12.7265 12.7526 13.6652 12.9655 14.5249 13.3727C15.3845 13.7798 16.1439 14.3713 16.7493 15.105C17.2063 15.681 17.4793 16.38 17.5353 17.113L19.1053 16.022C18.9715 15.2788 18.6399 14.5855 18.1453 14.015C17.3713 13.0632 16.3926 12.2983 15.2822 11.777C14.1717 11.2557 12.958 10.9915 11.7313 11.004C10.0693 10.9818 8.44548 11.5025 7.1063 12.487C7.77067 12.8752 8.2892 13.4708 8.58222 14.1824C8.87523 14.8939 8.92652 15.6819 8.72821 16.4254C8.5299 17.1689 8.09295 17.8268 7.48451 18.2978C6.87606 18.7689 6.12977 19.0272 5.3603 19.033C4.78097 19.0196 4.21294 18.8699 3.7023 18.596V19.12C3.67063 20.4096 3.96621 21.6863 4.56146 22.8308C5.15672 23.9753 6.03223 24.9504 7.1063 25.665C7.3023 25.753 7.8263 24.007 7.7383 24.007Z" fill="#2A2A2A"/>
<path d="M7.5753 23.844C8.18166 22.6726 9.08766 21.6829 10.201 20.9757C11.3144 20.2685 12.5953 19.869 13.9133 19.818H15.0033C15.3193 19.798 15.6363 19.828 15.9423 19.905C16.1163 18.715 16.6523 17.605 17.4803 16.731C17.3699 16.1386 17.1196 15.5811 16.7503 15.105C16.1446 14.3712 15.3848 13.7798 14.5248 13.3728C13.6648 12.9658 12.7257 12.7531 11.7743 12.75C11.1823 12.75 10.5943 12.838 10.0283 13.012C10.4083 13.802 10.6173 14.665 10.6393 15.542C10.6299 16.8828 10.1066 18.1689 9.17706 19.1353C8.24755 20.1016 6.98272 20.6746 5.6433 20.736C5.97794 21.9347 6.64745 23.0132 7.5733 23.845L7.5753 23.844Z" fill="white"/>
</g>
<defs>
<filter id="filter0_f" x="5.5713" y="28" width="35" height="21" filterUnits="userSpaceOnUse" color-interpolation-filters="sRGB">
<feFlood flood-opacity="0" result="BackgroundImageFix"/>
<feBlend mode="normal" in="SourceGraphic" in2="BackgroundImageFix" result="shape"/>
<feGaussianBlur stdDeviation="3" result="effect1_foregroundBlur"/>
</filter>
<clipPath id="clip0">
<rect width="48" height="48" fill="white"/>
</clipPath>
</defs>
</svg>
