<svg width="48" height="48" viewBox="0 0 48 48" fill="none" xmlns="http://www.w3.org/2000/svg">
<g clip-path="url(#clip0)">
<g filter="url(#filter0_f)">
<path d="M30.324 34H15.324C12.8387 34 10.824 36.0147 10.824 38.5C10.824 40.9853 12.8387 43 15.324 43H30.324C32.8093 43 34.824 40.9853 34.824 38.5C34.824 36.0147 32.8093 34 30.324 34Z" fill="white"/>
</g>
<path d="M34.214 19.6C33.2718 19.5206 32.323 19.5799 31.398 19.776C30.8841 18.0882 29.8316 16.6151 28.4013 15.5822C26.971 14.5492 25.2418 14.0131 23.478 14.056C19.518 14.056 16.438 16.52 15.998 19.688C15.6892 19.6092 15.37 19.5795 15.052 19.6H13.952C10.08 19.864 7 22.68 7 26.112C7 29.72 10.3 32.624 14.48 32.624H31.31C35.358 32.624 39.582 31.04 39.582 25.496C39.5879 24.0196 39.0397 22.5947 38.0458 21.503C37.0518 20.4113 35.6845 19.7322 34.214 19.6ZM37.822 26.288C37.382 30.424 32.982 30.776 31.662 30.776H14.326C12.654 30.776 9.134 29.368 8.826 26.728C8.75979 26.0973 8.82322 25.4597 9.01238 24.8543C9.20154 24.249 9.51245 23.6888 9.926 23.208C10.3832 22.6638 10.947 22.2192 11.5827 21.9013C12.2183 21.5835 12.9124 21.3992 13.622 21.36H14.524C15.171 21.334 15.8139 21.474 16.3915 21.7666C16.9692 22.0593 17.4623 22.4949 17.824 23.032C17.824 23.032 18 23.208 18 23.296C18.089 23.4778 18.2265 23.6315 18.3973 23.7402C18.5681 23.8489 18.7656 23.9083 18.968 23.912C19.1171 23.9245 19.2663 23.8884 19.3932 23.8091C19.5201 23.7297 19.6179 23.6115 19.672 23.472C19.7485 23.2066 19.7478 22.9249 19.6699 22.6599C19.5919 22.3949 19.44 22.1577 19.232 21.976C18.792 21.536 18.528 21.36 18.352 21.184C18.176 21.008 18 20.92 17.912 20.656C18.0707 19.3205 18.7229 18.0926 19.7405 17.2134C20.7581 16.3342 22.0677 15.8671 23.412 15.904C24.812 15.8722 26.1833 16.3035 27.3131 17.1309C28.4429 17.9583 29.2679 19.1356 29.66 20.48C28.6229 20.9091 27.7181 21.6055 27.0379 22.4983C26.3577 23.391 25.9264 24.4482 25.788 25.562C25.612 26.354 25.876 26.97 26.492 27.058H26.756C27.372 27.058 27.636 26.266 27.724 25.65C27.9288 24.5638 28.4458 23.5608 29.2116 22.7638C29.9774 21.9667 30.9589 21.4101 32.036 21.162H32.828C33.57 21.1122 34.3142 21.2197 35.0118 21.4775C35.7094 21.7353 36.3447 22.1376 36.876 22.658C37.3157 23.1439 37.6329 23.7278 37.8013 24.3612C37.9697 24.9945 37.9843 25.6588 37.844 26.299L37.822 26.288Z" fill="#2A2A2A"/>
<path d="M37.822 26.299C37.382 30.435 32.982 30.787 31.662 30.787H14.326C12.654 30.787 9.13399 29.379 8.82599 26.739C8.75979 26.1083 8.82321 25.4707 9.01237 24.8653C9.20153 24.26 9.51244 23.6998 9.92599 23.219C10.3832 22.6748 10.947 22.2301 11.5827 21.9123C12.2183 21.5945 12.9124 21.4102 13.622 21.371H14.524C15.171 21.345 15.8139 21.485 16.3915 21.7776C16.9691 22.0703 17.4623 22.5059 17.824 23.043C17.824 23.043 18 23.219 18 23.307C18.089 23.4888 18.2265 23.6425 18.3973 23.7512C18.5681 23.8599 18.7656 23.9193 18.968 23.923C19.1171 23.9355 19.2663 23.8994 19.3932 23.8201C19.5201 23.7407 19.6179 23.6225 19.672 23.483C19.7485 23.2176 19.7478 22.9359 19.6699 22.6709C19.5919 22.4059 19.44 22.1687 19.232 21.987C18.792 21.547 18.528 21.371 18.352 21.195C18.176 21.019 18 20.931 17.912 20.667C18.0707 19.3315 18.7229 18.1036 19.7405 17.2244C20.7581 16.3452 22.0677 15.8781 23.412 15.915C24.812 15.8832 26.1833 16.3145 27.3131 17.1419C28.4429 17.9693 29.2679 19.1466 29.66 20.491C28.6229 20.9201 27.7181 21.6165 27.0379 22.5093C26.3577 23.402 25.9264 24.4592 25.788 25.573C25.612 26.365 25.876 26.981 26.492 27.069H26.756C27.372 27.069 27.636 26.277 27.724 25.661C27.9288 24.5748 28.4458 23.5718 29.2116 22.7748C29.9774 21.9777 30.9589 21.4211 32.036 21.173H32.828C33.57 21.1232 34.3142 21.2307 35.0118 21.4885C35.7094 21.7463 36.3447 22.1486 36.876 22.669C37.756 23.657 38.106 25.007 37.822 26.299Z" fill="#C3C5C7"/>
<path d="M18.066 38.927H15.866V41.127H14.458V35.737H15.91V37.739H18.11V35.682H19.551V41.072H18.066V38.927ZM21.927 35.682H23.467L23.533 35.792L25.678 41.061H24.193C24.193 41.061 24.138 41.061 24.116 40.962L23.83 40.181H21.63L21.366 40.962C21.376 40.994 21.376 41.029 21.366 41.061H19.903L21.927 35.682ZM22.697 37.057C22.652 37.257 22.597 37.456 22.532 37.651C22.455 37.904 22.345 38.212 22.213 38.586L22.07 39.048H23.39L23.225 38.586C23.071 38.19 22.961 37.871 22.873 37.629C22.8064 37.4418 22.7513 37.2508 22.708 37.057H22.697ZM27.537 41.072H26.096V35.682H27.537V41.072ZM28.406 35.682H29.858V39.873H32.498V41.072H28.406V35.682Z" fill="#2A2A2A"/>
</g>
<defs>
<filter id="filter0_f" x="4.82401" y="28" width="36" height="21" filterUnits="userSpaceOnUse" color-interpolation-filters="sRGB">
<feFlood flood-opacity="0" result="BackgroundImageFix"/>
<feBlend mode="normal" in="SourceGraphic" in2="BackgroundImageFix" result="shape"/>
<feGaussianBlur stdDeviation="3" result="effect1_foregroundBlur"/>
</filter>
<clipPath id="clip0">
<rect width="48" height="48" fill="white"/>
</clipPath>
</defs>
</svg>
