<svg width="48" height="48" viewBox="0 0 48 48" fill="none" xmlns="http://www.w3.org/2000/svg">
<path d="M34.214 19.6C33.2718 19.5206 32.323 19.5799 31.398 19.776C30.8841 18.0882 29.8316 16.6151 28.4013 15.5822C26.971 14.5492 25.2418 14.0131 23.478 14.056C19.518 14.056 16.438 16.52 15.998 19.688C15.6892 19.6092 15.37 19.5795 15.052 19.6H13.952C10.08 19.864 7 22.68 7 26.112C7 29.72 10.3 32.624 14.48 32.624H31.31C35.358 32.624 39.582 31.04 39.582 25.496C39.5879 24.0196 39.0397 22.5947 38.0458 21.503C37.0518 20.4113 35.6845 19.7322 34.214 19.6ZM37.822 26.288C37.382 30.424 32.982 30.776 31.662 30.776H14.326C12.654 30.776 9.134 29.368 8.826 26.728C8.75979 26.0973 8.82322 25.4597 9.01238 24.8543C9.20154 24.249 9.51245 23.6888 9.926 23.208C10.3832 22.6638 10.947 22.2191 11.5827 21.9013C12.2183 21.5835 12.9124 21.3992 13.622 21.36H14.524C15.171 21.334 15.8139 21.474 16.3915 21.7666C16.9692 22.0593 17.4623 22.4949 17.824 23.032C17.824 23.032 18 23.208 18 23.296C18.089 23.4778 18.2265 23.6315 18.3973 23.7402C18.5681 23.8489 18.7656 23.9083 18.968 23.912C19.1171 23.9245 19.2663 23.8884 19.3932 23.8091C19.5201 23.7297 19.6179 23.6115 19.672 23.472C19.7485 23.2066 19.7478 22.9249 19.6699 22.6599C19.5919 22.3949 19.44 22.1577 19.232 21.976C18.792 21.536 18.528 21.36 18.352 21.184C18.176 21.008 18 20.92 17.912 20.656C18.0707 19.3205 18.7229 18.0926 19.7405 17.2134C20.7581 16.3342 22.0677 15.8671 23.412 15.904C24.812 15.8722 26.1833 16.3035 27.3131 17.1309C28.4429 17.9583 29.2679 19.1356 29.66 20.48C28.6229 20.9091 27.7181 21.6055 27.0379 22.4983C26.3577 23.391 25.9264 24.4482 25.788 25.562C25.612 26.354 25.876 26.97 26.492 27.058H26.756C27.372 27.058 27.636 26.266 27.724 25.65C27.9288 24.5638 28.4458 23.5608 29.2116 22.7638C29.9774 21.9667 30.9589 21.4101 32.036 21.162H32.828C33.57 21.1122 34.3142 21.2197 35.0118 21.4775C35.7094 21.7353 36.3447 22.1376 36.876 22.658C37.3157 23.1439 37.6329 23.7278 37.8013 24.3612C37.9697 24.9945 37.9843 25.6588 37.844 26.299L37.822 26.288Z" fill="#2A2A2A"/>
<path opacity="0.6" d="M37.822 26.299C37.382 30.435 32.982 30.787 31.662 30.787H14.326C12.654 30.787 9.13399 29.379 8.82599 26.739C8.75979 26.1082 8.82321 25.4706 9.01237 24.8653C9.20153 24.26 9.51244 23.6998 9.92599 23.219C10.3832 22.6748 10.947 22.2301 11.5827 21.9123C12.2183 21.5945 12.9124 21.4102 13.622 21.371H14.524C15.171 21.345 15.8139 21.485 16.3915 21.7776C16.9691 22.0703 17.4623 22.5059 17.824 23.043C17.824 23.043 18 23.219 18 23.307C18.089 23.4888 18.2265 23.6425 18.3973 23.7512C18.5681 23.8599 18.7656 23.9193 18.968 23.923C19.1171 23.9355 19.2663 23.8994 19.3932 23.82C19.5201 23.7407 19.6179 23.6225 19.672 23.483C19.7485 23.2176 19.7478 22.9359 19.6699 22.6709C19.5919 22.4059 19.44 22.1686 19.232 21.987C18.792 21.547 18.528 21.371 18.352 21.195C18.176 21.019 18 20.931 17.912 20.667C18.0707 19.3315 18.7229 18.1036 19.7405 17.2244C20.7581 16.3452 22.0677 15.8781 23.412 15.915C24.812 15.8832 26.1833 16.3145 27.3131 17.1419C28.4429 17.9693 29.2679 19.1466 29.66 20.491C28.6229 20.9201 27.7181 21.6165 27.0379 22.5092C26.3577 23.402 25.9264 24.4592 25.788 25.573C25.612 26.365 25.876 26.981 26.492 27.069H26.756C27.372 27.069 27.636 26.277 27.724 25.661C27.9288 24.5748 28.4458 23.5718 29.2116 22.7747C29.9774 21.9777 30.9589 21.4211 32.036 21.173H32.828C33.57 21.1232 34.3142 21.2307 35.0118 21.4885C35.7094 21.7463 36.3447 22.1486 36.876 22.669C37.756 23.657 38.106 25.007 37.822 26.299Z" fill="#828190"/>
<path d="M16.4243 41.07C16.1592 40.9163 15.9984 40.6434 16 40.35C16 40.1378 16.0894 39.9343 16.2485 39.7843C16.4076 39.6343 16.6235 39.55 16.8485 39.55H22.1515C22.6201 39.55 23 39.9082 23 40.35C23 40.7918 22.6201 41.15 22.1515 41.15H16.8485C16.7021 41.1593 16.5556 41.1317 16.4243 41.07Z" fill="#828190"/>
<path d="M17.283 38.1274C17.2835 37.821 17.4395 37.5453 17.6944 37.4C17.8781 37.2939 18.0991 37.2696 18.3085 37.3324C18.518 37.3952 18.6989 37.5399 18.8115 37.7348L21.463 42.3274C21.6973 42.7332 21.577 43.2413 21.1944 43.4622C20.8118 43.6831 20.3116 43.5332 20.0773 43.1274L17.4258 38.5348C17.3446 38.4126 17.2953 38.272 17.283 38.1274Z" fill="#828190"/>
<path d="M18.6885 43.5048C18.4229 43.6575 18.1061 43.6603 17.8529 43.5122C17.6691 43.4061 17.5376 43.2269 17.4872 43.0141C17.4369 42.8013 17.4718 42.5722 17.5843 42.3774L20.2358 37.7848C20.4701 37.379 20.9702 37.2291 21.3529 37.45C21.7355 37.6709 21.8557 38.179 21.6214 38.5848L18.9699 43.1774C18.9047 43.3088 18.8076 43.4218 18.6885 43.5048Z" fill="#828190"/>
<path d="M24.4243 39.07C24.1592 38.9163 23.9984 38.6434 24 38.35C24 38.1378 24.0894 37.9343 24.2485 37.7843C24.4076 37.6343 24.6235 37.55 24.8485 37.55H30.1515C30.6201 37.55 31 37.9082 31 38.35C31 38.7918 30.6201 39.15 30.1515 39.15H24.8485C24.7021 39.1593 24.5556 39.1317 24.4243 39.07Z" fill="#828190"/>
<path d="M25.283 36.1274C25.2835 35.821 25.4395 35.5453 25.6944 35.4C25.8781 35.2939 26.0991 35.2696 26.3085 35.3324C26.518 35.3952 26.6989 35.5399 26.8115 35.7348L29.463 40.3274C29.6973 40.7332 29.577 41.2413 29.1944 41.4622C28.8118 41.6831 28.3116 41.5332 28.0773 41.1274L25.4258 36.5348C25.3446 36.4126 25.2953 36.272 25.283 36.1274Z" fill="#828190"/>
<path d="M26.6885 41.5048C26.4229 41.6575 26.1061 41.6603 25.8529 41.5122C25.6691 41.4061 25.5376 41.2269 25.4872 41.0141C25.4369 40.8013 25.4718 40.5722 25.5843 40.3774L28.2358 35.7848C28.4701 35.379 28.9702 35.2291 29.3529 35.45C29.7355 35.6709 29.8557 36.179 29.6214 36.5848L26.9699 41.1774C26.9047 41.3088 26.8076 41.4218 26.6885 41.5048Z" fill="#828190"/>
</svg>
