<svg width="48" height="48" viewBox="0 0 48 48" fill="none" xmlns="http://www.w3.org/2000/svg">
<path d="M33.989 19.818C33.0548 19.7396 32.1141 19.7985 31.197 19.993C30.6874 18.319 29.6436 16.858 28.225 15.8335C26.8064 14.809 25.0913 14.2774 23.342 14.32C19.415 14.32 16.36 16.764 15.924 19.905C15.6178 19.827 15.3013 19.7976 14.986 19.818H13.895C10.055 20.08 7 22.873 7 26.276C7 29.855 10.273 32.735 14.418 32.735H31.109C35.124 32.735 39.313 31.164 39.313 25.665C39.3189 24.2008 38.7751 22.7877 37.7893 21.705C36.8035 20.6223 35.4474 19.949 33.989 19.818ZM37.568 26.451C37.131 30.553 32.768 30.901 31.458 30.901H14.266C12.608 30.901 9.116 29.505 8.811 26.887C8.74551 26.2616 8.8085 25.6295 8.99611 25.0293C9.18372 24.4292 9.49199 23.8737 9.902 23.397C10.3554 22.8573 10.9147 22.4162 11.5452 22.1009C12.1757 21.7856 12.8641 21.6029 13.568 21.564H14.462C15.1037 21.5382 15.7413 21.677 16.3142 21.9672C16.8871 22.2574 17.3762 22.6894 17.735 23.222C17.735 23.222 17.909 23.396 17.909 23.484C18.089 23.851 18.46 24.087 18.869 24.094C19.017 24.1067 19.1651 24.071 19.2911 23.9924C19.4171 23.9138 19.5143 23.7965 19.568 23.658C19.6437 23.3948 19.6428 23.1156 19.5654 22.8529C19.488 22.5902 19.3373 22.3551 19.131 22.175C18.695 21.738 18.433 21.564 18.258 21.389C18.084 21.215 17.909 21.127 17.822 20.865C17.9794 19.5406 18.6263 18.3229 19.6357 17.4511C20.645 16.5792 21.9438 16.1162 23.277 16.153C24.6654 16.1215 26.0253 16.5492 27.1457 17.3698C28.266 18.1903 29.0842 19.3578 29.473 20.691C28.4445 21.1166 27.5472 21.8073 26.8727 22.6926C26.1981 23.578 25.7703 24.6264 25.633 25.731C25.458 26.516 25.72 27.127 26.331 27.215H26.593C27.203 27.215 27.466 26.429 27.553 25.818C27.7563 24.741 28.269 23.7466 29.0283 22.9563C29.7877 22.166 30.761 21.6141 31.829 21.368H32.615C34.103 21.268 35.564 21.808 36.629 22.851C37.0649 23.3328 37.3794 23.9118 37.5464 24.5397C37.7134 25.1676 37.728 25.8263 37.589 26.461L37.568 26.451Z" fill="#2A2A2A"/>
<path d="M37.5863 26.462C37.1493 30.564 32.7863 30.912 31.4763 30.912H14.2843C12.6263 30.912 9.1343 29.516 8.8293 26.898C8.76381 26.2726 8.8268 25.6404 9.01441 25.0403C9.20202 24.4402 9.51029 23.8847 9.9203 23.408C10.3737 22.8682 10.933 22.4271 11.5635 22.1118C12.194 21.7966 12.8824 21.6139 13.5863 21.575H14.4803C15.122 21.5492 15.7596 21.688 16.3325 21.9782C16.9054 22.2684 17.3945 22.7003 17.7533 23.233C17.7533 23.233 17.9273 23.407 17.9273 23.495C18.1073 23.862 18.4783 24.098 18.8873 24.105C19.0353 24.1176 19.1834 24.082 19.3094 24.0034C19.4354 23.9248 19.5326 23.8074 19.5863 23.669C19.6622 23.4057 19.6614 23.1262 19.584 22.8633C19.5066 22.6004 19.3558 22.3651 19.1493 22.185C18.7133 21.749 18.4513 21.575 18.2763 21.4C18.1023 21.225 17.9273 21.138 17.8403 20.876C17.9977 19.5516 18.6446 18.3339 19.654 17.462C20.6633 16.5902 21.9621 16.1272 23.2953 16.164C24.6837 16.1324 26.0436 16.5601 27.164 17.3807C28.2844 18.2013 29.1025 19.3688 29.4913 20.702C28.4628 21.1275 27.5655 21.8182 26.891 22.7036C26.2164 23.589 25.7886 24.6374 25.6513 25.742C25.4763 26.527 25.7383 27.138 26.3493 27.225H26.6113C27.2213 27.225 27.4843 26.44 27.5713 25.829C27.7746 24.752 28.2873 23.7575 29.0467 22.9672C29.806 22.1769 30.7793 21.625 31.8473 21.379H32.6333C34.1213 21.279 35.5823 21.818 36.6473 22.862C37.0773 23.345 37.3866 23.9232 37.5498 24.549C37.7131 25.1748 37.7256 25.8304 37.5863 26.462Z" fill="#828190"/>
<path d="M7.7383 24.007C6.72525 23.1534 5.99508 22.0124 5.6443 20.735C6.98356 20.6736 8.24823 20.1008 9.17772 19.1346C10.1072 18.1685 10.6307 16.8826 10.6403 15.542C10.6182 14.6647 10.4103 13.802 10.0303 13.011C10.5957 12.8372 11.1838 12.7489 11.7753 12.749C12.7265 12.7526 13.6652 12.9655 14.5249 13.3727C15.3845 13.7798 16.1439 14.3713 16.7493 15.105C17.2063 15.681 17.4793 16.38 17.5353 17.113L19.1053 16.022C18.9715 15.2788 18.6399 14.5855 18.1453 14.015C17.3713 13.0632 16.3926 12.2983 15.2822 11.777C14.1717 11.2557 12.958 10.9915 11.7313 11.004C10.0693 10.9818 8.44548 11.5025 7.1063 12.487C7.77067 12.8752 8.2892 13.4708 8.58222 14.1824C8.87523 14.8939 8.92652 15.6819 8.72821 16.4254C8.5299 17.1689 8.09295 17.8268 7.48451 18.2978C6.87606 18.7689 6.12977 19.0272 5.3603 19.033C4.78097 19.0196 4.21294 18.8699 3.7023 18.596V19.12C3.67063 20.4096 3.96621 21.6863 4.56146 22.8308C5.15672 23.9753 6.03223 24.9504 7.1063 25.665C7.3023 25.753 7.8263 24.007 7.7383 24.007Z" fill="#2A2A2A"/>
<path d="M7.5753 23.844C8.18166 22.6726 9.08767 21.6829 10.201 20.9757C11.3144 20.2685 12.5953 19.869 13.9133 19.818H15.0033C15.3193 19.798 15.6363 19.828 15.9423 19.905C16.1163 18.715 16.6523 17.605 17.4803 16.731C17.3699 16.1386 17.1196 15.5811 16.7503 15.105C16.1448 14.3711 15.3852 13.7796 14.5254 13.3724C13.6656 12.9653 12.7267 12.7524 11.7753 12.749C11.1833 12.749 10.5953 12.837 10.0293 13.011C10.4093 13.801 10.6183 14.664 10.6403 15.541C10.631 16.8818 10.1076 18.1679 9.17807 19.1342C8.24855 20.1006 6.98373 20.6735 5.6443 20.735C5.97895 21.9337 6.64845 23.0122 7.5743 23.844H7.5753Z" fill="white"/>
<path d="M22.2043 26.625C22.2924 26.6334 22.3771 26.6631 22.4512 26.7116C22.5252 26.76 22.5864 26.8258 22.6293 26.9032C22.6722 26.9806 22.6957 27.0673 22.6976 27.1557C22.6995 27.2442 22.6798 27.3318 22.6403 27.411L20.4583 32.735H23.7313C23.8015 32.7377 23.8699 32.7583 23.9301 32.7947C23.9902 32.8311 24.0401 32.8822 24.0751 32.9432C24.1101 33.0041 24.129 33.073 24.1301 33.1433C24.1312 33.2136 24.1144 33.283 24.0813 33.345L23.3813 34.567L19.1933 41.287C19.1063 41.375 19.0183 41.462 18.9313 41.462C18.8278 41.4485 18.7336 41.3954 18.6683 41.314C18.6031 41.2325 18.5719 41.1289 18.5813 41.025L20.5013 35.265H16.6613C16.5996 35.2639 16.539 35.2478 16.4848 35.2181C16.4307 35.1885 16.3845 35.1461 16.3503 35.0947C16.3161 35.0433 16.2948 34.9843 16.2884 34.9229C16.2819 34.8615 16.2905 34.7994 16.3133 34.742L16.7493 33.432L18.8443 27.062C18.8896 26.9602 18.9627 26.8734 19.0552 26.8114C19.1478 26.7495 19.256 26.715 19.3673 26.712L22.1603 26.625" fill="#F4C53E"/>
<path d="M22.2043 26.625C22.2924 26.6334 22.3771 26.6631 22.4512 26.7116C22.5252 26.76 22.5863 26.8258 22.6293 26.9032C22.6722 26.9806 22.6956 27.0673 22.6976 27.1557C22.6995 27.2442 22.6798 27.3318 22.6403 27.411L20.4583 32.735H23.7313C23.8015 32.7377 23.8699 32.7583 23.9301 32.7947C23.9902 32.8311 24.0401 32.8822 24.0751 32.9432C24.1101 33.0041 24.129 33.073 24.1301 33.1433C24.1312 33.2136 24.1144 33.283 24.0813 33.345L23.3813 34.567L19.1933 41.287C19.1063 41.375 19.0183 41.462 18.9313 41.462C18.8278 41.4485 18.7336 41.3954 18.6683 41.314C18.6031 41.2325 18.5719 41.1289 18.5813 41.025L20.5013 35.265H16.6613C16.5995 35.2639 16.539 35.2478 16.4848 35.2181C16.4306 35.1885 16.3845 35.1461 16.3503 35.0947C16.3161 35.0433 16.2948 34.9843 16.2884 34.9229C16.2819 34.8615 16.2905 34.7994 16.3133 34.742L16.7493 33.432L18.8443 27.062C18.8896 26.9603 18.9627 26.8734 19.0552 26.8115C19.1478 26.7495 19.256 26.715 19.3673 26.712L22.1603 26.625H22.2043ZM22.1603 24.88H19.4113C18.9527 24.8853 18.5066 25.0302 18.1324 25.2953C17.7581 25.5604 17.4735 25.9332 17.3163 26.364L15.2223 32.734L14.7863 34C14.6521 34.3137 14.6056 34.658 14.6515 34.9961C14.6975 35.3342 14.8343 35.6535 15.0473 35.92C15.4413 36.502 16.0903 36.86 16.7933 36.88H18.1023L17.0113 40.37C16.8313 40.991 16.9263 41.659 17.2733 42.204C17.6583 42.738 18.2733 43.061 18.9313 43.076C19.2805 43.0817 19.6252 42.9961 19.9313 42.8277C20.2373 42.6594 20.4941 42.414 20.6763 42.116L24.8663 35.396L25.5643 34.175C25.7401 33.8538 25.8322 33.4936 25.8322 33.1275C25.8322 32.7614 25.7401 32.4012 25.5643 32.08C25.3776 31.7567 25.111 31.4867 24.79 31.2958C24.4691 31.105 24.1046 30.9997 23.7313 30.99H23.1213L24.2113 28.11C24.5873 27.4 24.5873 26.55 24.2113 25.84C23.9873 25.5212 23.685 25.2654 23.3335 25.0973C22.982 24.9291 22.5931 24.8543 22.2043 24.88H22.1603Z" fill="#2A2A2A"/>
<path d="M26.078 39.7594C26.1944 41.1633 27.8192 41.9947 29.1582 41.5572C32.5787 40.4395 30.8146 35.5 30.8146 35.5C30.8146 35.5 25.835 36.8279 26.078 39.7594Z" fill="#0F79BE"/>
</svg>
