<svg width="48" height="48" viewBox="0 0 48 48" fill="none" xmlns="http://www.w3.org/2000/svg">
<path d="M33.643 20.0001C32.7205 19.9223 31.7916 19.9802 30.886 20.1721C30.3829 18.5199 29.3525 17.0779 27.9525 16.0666C26.5524 15.0553 24.8596 14.5304 23.133 14.5721C19.256 14.5721 16.24 16.9851 15.81 20.0861C15.5074 20.0089 15.1946 19.9799 14.883 20.0001H13.806C10.016 20.2581 7 23.0151 7 26.3751C7 29.9081 10.231 32.7511 14.323 32.7511H30.8C34.763 32.7511 38.899 31.2001 38.899 25.7721C38.9048 24.3266 38.368 22.9315 37.3948 21.8628C36.4215 20.794 35.0827 20.1293 33.643 20.0001ZM37.176 26.5481C36.745 30.5971 32.437 30.9421 31.145 30.9421H14.173C12.536 30.9421 9.09 29.5631 8.788 26.9781C8.72319 26.3606 8.7853 25.7364 8.9705 25.1438C9.15571 24.5512 9.46011 24.0027 9.865 23.5321C10.3126 22.9995 10.8645 22.5642 11.4867 22.2531C12.109 21.9419 12.7884 21.7616 13.483 21.7231H14.366C14.9995 21.6976 15.629 21.8346 16.1945 22.1211C16.7601 22.4077 17.2429 22.8342 17.597 23.3601C17.597 23.3601 17.77 23.5321 17.77 23.6181C17.947 23.9811 18.313 24.2141 18.717 24.2221C19.017 24.2471 19.297 24.0721 19.407 23.7911C19.4819 23.5312 19.4812 23.2553 19.4048 22.9958C19.3285 22.7363 19.1797 22.504 18.976 22.3261C18.545 21.8961 18.286 21.7231 18.114 21.5511C17.942 21.3781 17.77 21.2921 17.684 21.0341C17.8394 19.7268 18.4779 18.5249 19.474 17.6642C20.4701 16.8034 21.752 16.3462 23.068 16.3821C24.4386 16.351 25.7812 16.7733 26.8873 17.5833C27.9933 18.3934 28.801 19.5459 29.185 20.8621C28.1699 21.2822 27.2843 21.9641 26.6185 22.838C25.9527 23.712 25.5305 24.7468 25.395 25.8371C25.222 26.6121 25.48 27.2151 26.083 27.3021H26.342C26.945 27.3021 27.203 26.5261 27.29 25.9231C27.4905 24.8597 27.9965 23.8778 28.7462 23.0975C29.4958 22.3171 30.4566 21.7721 31.511 21.5291H32.286C33.0126 21.4803 33.7414 21.5856 34.4245 21.838C35.1076 22.0905 35.7297 22.4845 36.25 22.9941C36.6802 23.4698 36.9906 24.0414 37.1553 24.6613C37.32 25.2812 37.3343 25.9315 37.197 26.5581L37.176 26.5481Z" fill="#2A2A2A"/>
<path d="M37.2129 26.558C36.7819 30.608 32.4739 30.952 31.1819 30.952H14.2099C12.5729 30.952 9.12689 29.574 8.82489 26.989C8.76008 26.3716 8.82219 25.7474 9.00739 25.1548C9.1926 24.5622 9.497 24.0137 9.90189 23.543C10.3494 23.0102 10.9013 22.5748 11.5235 22.2635C12.1458 21.9522 12.8252 21.7717 13.5199 21.733H14.4029C15.0365 21.7076 15.666 21.8448 16.2316 22.1315C16.7971 22.4183 17.2799 22.845 17.6339 23.371C17.6339 23.371 17.8069 23.543 17.8069 23.629C17.9839 23.992 18.3499 24.225 18.7539 24.232C19.0539 24.257 19.3339 24.082 19.4439 23.802C19.5188 23.5421 19.5181 23.2663 19.4417 23.0068C19.3654 22.7473 19.2166 22.515 19.0129 22.337C18.5819 21.907 18.3229 21.734 18.1509 21.562C17.9789 21.389 17.8069 21.303 17.7209 21.045C17.8761 19.7376 18.5144 18.5354 19.5106 17.6745C20.5068 16.8136 21.7888 16.3562 23.1049 16.392C24.4755 16.361 25.8181 16.7832 26.9241 17.5933C28.0302 18.4034 28.8379 19.5559 29.2219 20.872C28.2066 21.2923 27.3209 21.9743 26.6551 22.8484C25.9894 23.7225 25.5673 24.7576 25.4319 25.848C25.2589 26.623 25.5169 27.226 26.1199 27.312H26.3789C26.9819 27.312 27.2399 26.537 27.3269 25.934C27.5274 24.8707 28.0334 23.8888 28.783 23.1085C29.5327 22.3281 30.4934 21.7831 31.5479 21.54H32.3229C33.0495 21.4913 33.7783 21.5965 34.4614 21.849C35.1445 22.1015 35.7666 22.4954 36.2869 23.005C37.1469 23.972 37.4919 25.294 37.2129 26.558Z" fill="#828190"/>
<path d="M21.991 26.72C22.0778 26.7284 22.1613 26.7578 22.2342 26.8056C22.3072 26.8534 22.3674 26.9183 22.4097 26.9945C22.452 27.0708 22.4751 27.1562 22.4771 27.2434C22.4791 27.3306 22.4598 27.4169 22.421 27.495L20.268 32.751H23.498C23.6059 32.7562 23.7076 32.8027 23.7821 32.8809C23.8566 32.9591 23.8981 33.063 23.898 33.171C23.8912 33.2349 23.8725 33.297 23.843 33.354L23.154 34.56L19.019 41.194C18.933 41.28 18.846 41.366 18.76 41.366C18.6583 41.3525 18.5657 41.3002 18.5016 41.2201C18.4375 41.14 18.4069 41.0382 18.416 40.936L20.311 35.249H16.521C16.4714 35.2492 16.4223 35.2395 16.3764 35.2206C16.3306 35.2017 16.2889 35.174 16.2538 35.139C16.2187 35.1039 16.1908 35.0623 16.1718 35.0165C16.1528 34.9707 16.143 34.9216 16.143 34.872C16.1369 34.8256 16.1369 34.7785 16.143 34.732L16.574 33.44L18.674 27.15C18.7189 27.0497 18.7913 26.9642 18.8828 26.9033C18.9743 26.8424 19.0811 26.8087 19.191 26.806L21.905 26.72" fill="#F4C53E"/>
<path d="M21.991 26.72C22.0778 26.7284 22.1613 26.7578 22.2342 26.8056C22.3072 26.8534 22.3674 26.9183 22.4097 26.9945C22.452 27.0708 22.4751 27.1562 22.4771 27.2434C22.4791 27.3306 22.4598 27.4169 22.421 27.495L20.268 32.751H23.498C23.6059 32.7562 23.7077 32.8027 23.7821 32.8809C23.8566 32.9591 23.8981 33.063 23.898 33.171C23.8912 33.2349 23.8725 33.297 23.843 33.354L23.154 34.56L19.019 41.194C18.933 41.28 18.846 41.366 18.76 41.366C18.6583 41.3525 18.5657 41.3003 18.5016 41.2201C18.4375 41.14 18.4069 41.0382 18.416 40.936L20.311 35.249H16.521C16.4714 35.2492 16.4223 35.2395 16.3764 35.2206C16.3306 35.2017 16.2889 35.174 16.2538 35.139C16.2187 35.104 16.1908 35.0623 16.1718 35.0165C16.1528 34.9707 16.143 34.9216 16.143 34.872C16.1369 34.8256 16.1369 34.7785 16.143 34.732L16.574 33.44L18.674 27.15C18.7189 27.0497 18.7913 26.9642 18.8828 26.9033C18.9743 26.8425 19.0811 26.8087 19.191 26.806L21.905 26.72H21.991ZM21.905 24.997H19.235C18.7822 25.0023 18.3417 25.1452 17.9721 25.4069C17.6025 25.6686 17.3213 26.0367 17.166 26.462L15.099 32.751L14.668 34C14.398 34.631 14.498 35.36 14.926 35.895C15.315 36.47 15.956 36.823 16.65 36.843H17.942L16.865 40.289C16.7726 40.5912 16.7479 40.91 16.7924 41.2228C16.837 41.5356 16.9499 41.8347 17.123 42.099C17.503 42.627 18.109 42.947 18.76 42.96C19.1051 42.9668 19.4459 42.8828 19.7483 42.7164C20.0506 42.55 20.304 42.3071 20.483 42.012L24.619 35.378L25.308 34.172C25.4813 33.8551 25.5721 33.4997 25.5721 33.1385C25.5721 32.7773 25.4813 32.4219 25.308 32.105C25.1237 31.7856 24.8605 31.5188 24.5436 31.3302C24.2267 31.1417 23.8667 31.0376 23.498 31.028H22.896L23.973 28.185C24.1533 27.8392 24.2474 27.455 24.2474 27.065C24.2474 26.6751 24.1533 26.2909 23.973 25.945C23.7512 25.6308 23.4526 25.3786 23.1056 25.2127C22.7586 25.0467 22.3749 24.9725 21.991 24.997H21.905ZM38.21 26.558C37.951 26.558 37.865 24.922 37.865 24.922C38.5662 24.3527 39.1258 23.6283 39.4995 22.806C39.8733 21.9836 40.0511 21.0858 40.019 20.183C40.0164 18.5194 39.3559 16.9244 38.1816 15.746C37.0073 14.5676 35.4146 13.9015 33.751 13.893C32.8029 13.8948 31.8676 14.113 31.0167 14.5312C30.1658 14.9494 29.4216 15.5565 28.841 16.306C28.581 16.651 28.237 17.254 27.893 16.996C27.72 16.823 27.117 16.736 27.031 16.306C26.945 15.876 27.461 15.445 27.548 15.229C28.2969 14.2798 29.2504 13.5118 30.3374 12.9823C31.4244 12.4528 32.6169 12.1755 33.826 12.171C35.9112 12.1652 37.9138 12.9857 39.3953 14.453C40.8769 15.9203 41.7167 17.9149 41.731 20C41.722 21.1847 41.4552 22.3531 40.9493 23.4243C40.4433 24.4954 39.7102 25.4436 38.801 26.203C38.7313 26.2988 38.6431 26.3796 38.5416 26.4406C38.4401 26.5016 38.3273 26.5415 38.21 26.558ZM33.805 10.62C33.5764 10.62 33.3571 10.5292 33.1955 10.3676C33.0338 10.2059 32.943 9.98666 32.943 9.75804V6.91504C32.9506 6.69164 33.0447 6.47993 33.2054 6.32458C33.3662 6.16923 33.581 6.0824 33.8045 6.0824C34.028 6.0824 34.2428 6.16923 34.4036 6.32458C34.5643 6.47993 34.6584 6.69164 34.666 6.91504V9.75804C34.6408 9.97781 34.5421 10.1826 34.3857 10.3391C34.2294 10.4956 34.0247 10.5946 33.805 10.62ZM46.998 21.077H44.154C43.9256 21.0768 43.7066 20.9858 43.5451 20.8242C43.3837 20.6626 43.293 20.4435 43.293 20.215C43.2872 20.1076 43.3027 20 43.3385 19.8986C43.3743 19.7971 43.4298 19.7037 43.5018 19.6237C43.5738 19.5437 43.6609 19.4787 43.7581 19.4325C43.8552 19.3862 43.9605 19.3595 44.068 19.354H46.998C47.473 19.354 47.858 19.74 47.858 20.215C47.8653 20.3211 47.8517 20.4276 47.8178 20.5284C47.7839 20.6292 47.7304 20.7223 47.6604 20.8024C47.5905 20.8824 47.5054 20.9479 47.4101 20.9951C47.3148 21.0422 47.2111 21.0701 47.105 21.077H46.997H46.998ZM41.138 13.635C40.9112 13.6316 40.6949 13.5389 40.536 13.377C40.4589 13.3 40.3977 13.2085 40.356 13.1077C40.3143 13.007 40.2928 12.8991 40.2928 12.79C40.2928 12.681 40.3143 12.5731 40.356 12.4723C40.3977 12.3716 40.4589 12.2801 40.536 12.203L42.517 10.222C42.5792 10.1287 42.6591 10.0485 42.7523 9.986C42.8455 9.92353 42.9501 9.88003 43.0601 9.85797C43.1701 9.83592 43.2833 9.83575 43.3934 9.85746C43.5034 9.87918 43.6081 9.92236 43.7015 9.98454C43.7949 10.0467 43.8751 10.1267 43.9376 10.2199C44 10.313 44.0435 10.4176 44.0656 10.5276C44.0876 10.6376 44.0878 10.7509 44.0661 10.8609C44.0444 10.971 44.0012 11.0757 43.939 11.169C43.884 11.2563 43.8102 11.3301 43.723 11.385L41.742 13.366C41.5816 13.528 41.3666 13.6243 41.139 13.636L41.138 13.635ZM26.406 13.635C26.1789 13.6319 25.9622 13.5391 25.803 13.377L23.822 11.385C23.6663 11.2227 23.5794 11.0065 23.5794 10.7815C23.5794 10.5566 23.6663 10.3404 23.822 10.178C23.901 10.0985 23.995 10.0354 24.0984 9.99235C24.2019 9.94929 24.3129 9.92712 24.425 9.92712C24.5371 9.92712 24.6481 9.94929 24.7516 9.99235C24.8551 10.0354 24.949 10.0985 25.028 10.178L27.01 12.16C27.1613 12.3115 27.2463 12.5169 27.2463 12.731C27.2463 12.9452 27.1613 13.1505 27.01 13.302C26.9401 13.3987 26.8497 13.4787 26.7453 13.5362C26.6409 13.5938 26.525 13.6275 26.406 13.635ZM43.12 30.35C42.8926 30.3463 42.6758 30.2529 42.517 30.09L40.536 28.11C40.3998 27.9306 40.3392 27.705 40.3672 27.4815C40.3952 27.2579 40.5097 27.0543 40.686 26.914C40.8371 26.7879 41.0277 26.7187 41.2245 26.7187C41.4213 26.7187 41.6119 26.7879 41.763 26.914L43.745 28.895C43.8963 29.0465 43.9813 29.2519 43.9813 29.466C43.9813 29.6802 43.8963 29.8855 43.745 30.037C43.6719 30.1337 43.5775 30.2122 43.4691 30.2663C43.3606 30.3204 43.2412 30.3487 43.12 30.349V30.35Z" fill="#2A2A2A"/>
<path d="M30.886 20.1831C31.7911 19.9877 32.72 19.926 33.643 20.0001C34.8003 20.0943 35.9011 20.5398 36.7981 21.277C37.6951 22.0143 38.3454 23.008 38.662 24.1251C39.5796 23.0161 40.062 21.6108 40.019 20.1721C40.0161 18.5086 39.3555 16.9138 38.1812 15.7357C37.007 14.5575 35.4144 13.8915 33.751 13.8831C32.8029 13.8847 31.8678 14.1028 31.0168 14.5208C30.1659 14.9388 29.4217 15.5457 28.841 16.2951L28.625 16.5971C29.7034 17.5538 30.4876 18.7975 30.886 20.1831Z" fill="#EF9D33"/>
<path d="M26.078 39.7594C26.1944 41.1633 27.8192 41.9947 29.1582 41.5572C32.5787 40.4395 30.8146 35.5 30.8146 35.5C30.8146 35.5 25.835 36.8279 26.078 39.7594Z" fill="#0F79BE"/>
</svg>
