<svg width="48" height="48" viewBox="0 0 48 48" fill="none" xmlns="http://www.w3.org/2000/svg">
<path d="M38.21 26.558C37.951 26.558 37.865 24.922 37.865 24.922C38.5662 24.3527 39.1258 23.6283 39.4995 22.806C39.8733 21.9836 40.0511 21.0858 40.019 20.183C40.0164 18.5194 39.3559 16.9244 38.1816 15.746C37.0073 14.5676 35.4146 13.9015 33.751 13.893C32.803 13.8955 31.868 14.1141 31.0172 14.5323C30.1664 14.9504 29.4221 15.557 28.841 16.306C28.581 16.651 28.237 17.254 27.893 16.996C27.72 16.823 27.117 16.736 27.031 16.306C26.945 15.876 27.461 15.445 27.548 15.229C28.2969 14.2798 29.2504 13.5118 30.3374 12.9823C31.4244 12.4528 32.6169 12.1755 33.826 12.171C35.9112 12.1652 37.9138 12.9857 39.3953 14.453C40.8769 15.9203 41.7167 17.9149 41.731 20C41.722 21.1847 41.4552 22.3531 40.9493 23.4243C40.4433 24.4954 39.7102 25.4436 38.801 26.203C38.7313 26.2988 38.6431 26.3796 38.5416 26.4406C38.44 26.5016 38.3273 26.5415 38.21 26.558ZM33.805 10.62C33.5764 10.62 33.3571 10.5292 33.1955 10.3676C33.0338 10.2059 32.943 9.98666 32.943 9.75804V6.91504C32.9506 6.69164 33.0447 6.47993 33.2054 6.32458C33.3662 6.16923 33.581 6.0824 33.8045 6.0824C34.028 6.0824 34.2428 6.16923 34.4036 6.32458C34.5643 6.47993 34.6584 6.69164 34.666 6.91504V9.75804C34.6391 9.97715 34.5398 10.181 34.3838 10.3372C34.2278 10.4934 34.0241 10.5929 33.805 10.62ZM46.998 21.077H44.154C43.9256 21.0768 43.7066 20.9858 43.5451 20.8242C43.3837 20.6626 43.293 20.4435 43.293 20.215C43.2872 20.1076 43.3027 20 43.3385 19.8986C43.3743 19.7971 43.4298 19.7037 43.5018 19.6237C43.5738 19.5437 43.6609 19.4787 43.758 19.4325C43.8552 19.3862 43.9605 19.3595 44.068 19.354H46.998C47.473 19.354 47.858 19.74 47.858 20.215C47.8653 20.322 47.8513 20.4293 47.8167 20.5308C47.7821 20.6323 47.7277 20.7258 47.6566 20.8061C47.5855 20.8863 47.4991 20.9516 47.4025 20.9981C47.3059 21.0446 47.2011 21.0715 47.094 21.077H46.997H46.998ZM41.138 13.635C41.0253 13.6358 40.9137 13.6132 40.8101 13.5688C40.7065 13.5244 40.6132 13.4592 40.536 13.377C40.4589 13.3 40.3977 13.2085 40.356 13.1077C40.3143 13.007 40.2928 12.8991 40.2928 12.79C40.2928 12.681 40.3143 12.5731 40.356 12.4723C40.3977 12.3716 40.4589 12.2801 40.536 12.203L42.517 10.222C42.5792 10.1287 42.6591 10.0485 42.7523 9.986C42.8455 9.92353 42.9501 9.88003 43.0601 9.85797C43.1701 9.83592 43.2833 9.83575 43.3934 9.85746C43.5034 9.87918 43.6081 9.92236 43.7015 9.98454C43.7949 10.0467 43.8751 10.1267 43.9375 10.2199C44 10.313 44.0435 10.4176 44.0656 10.5276C44.0876 10.6376 44.0878 10.7509 44.0661 10.8609C44.0444 10.971 44.0012 11.0757 43.939 11.169C43.8812 11.254 43.8079 11.3272 43.723 11.385L41.742 13.366C41.5816 13.5279 41.3666 13.6242 41.139 13.636L41.138 13.635ZM26.406 13.635C26.2931 13.6359 26.1813 13.6134 26.0775 13.569C25.9738 13.5246 25.8803 13.4593 25.803 13.377L23.822 11.385C23.6663 11.2227 23.5794 11.0065 23.5794 10.7815C23.5794 10.5566 23.6663 10.3404 23.822 10.178C23.901 10.0985 23.995 10.0354 24.0984 9.99235C24.2019 9.94929 24.3129 9.92712 24.425 9.92712C24.5371 9.92712 24.6481 9.94929 24.7516 9.99235C24.8551 10.0354 24.949 10.0985 25.028 10.178L27.01 12.16C27.0864 12.2352 27.1471 12.3249 27.1886 12.4238C27.23 12.5227 27.2514 12.6288 27.2514 12.736C27.2514 12.8433 27.23 12.9494 27.1886 13.0483C27.1471 13.1472 27.0864 13.2368 27.01 13.312C26.9391 13.4068 26.8483 13.4849 26.7439 13.5407C26.6395 13.5965 26.5242 13.6287 26.406 13.635ZM43.12 30.35C43.007 30.3507 42.8951 30.3279 42.7913 30.2831C42.6875 30.2384 42.5941 30.1726 42.517 30.09L40.536 28.11C40.3998 27.9306 40.3392 27.705 40.3672 27.4815C40.3952 27.2579 40.5097 27.0543 40.686 26.914C40.8371 26.7879 41.0277 26.7187 41.2245 26.7187C41.4213 26.7187 41.6119 26.7879 41.763 26.914L43.745 28.895C43.8216 28.9703 43.8824 29.06 43.9239 29.159C43.9655 29.2579 43.9869 29.3642 43.9869 29.4715C43.9869 29.5789 43.9655 29.6851 43.9239 29.7841C43.8824 29.8831 43.8216 29.9728 43.745 30.048C43.6708 30.1427 43.5759 30.219 43.4675 30.2712C43.3591 30.3234 43.2403 30.35 43.12 30.349V30.35Z" fill="#2A2A2A"/>
<path d="M33.643 20.0001C32.7205 19.9231 31.7918 19.981 30.886 20.1721C30.3829 18.5199 29.3525 17.0779 27.9525 16.0666C26.5524 15.0553 24.8596 14.5304 23.133 14.5721C19.256 14.5721 16.24 16.9851 15.81 20.0861C15.5074 20.0089 15.1946 19.9799 14.883 20.0001H13.806C10.016 20.2581 7 23.0151 7 26.3751C7 29.9081 10.231 32.7511 14.323 32.7511H30.8C34.763 32.7511 38.899 31.2001 38.899 25.7721C38.9023 24.3273 38.3646 22.9336 37.3919 21.8654C36.4191 20.7972 35.0818 20.1317 33.643 20.0001ZM37.176 26.5481C36.745 30.5971 32.437 30.9421 31.145 30.9421H14.173C12.536 30.9421 9.09 29.5631 8.788 26.9781C8.72319 26.3606 8.7853 25.7364 8.9705 25.1438C9.15571 24.5512 9.46011 24.0027 9.865 23.5321C10.3126 22.9995 10.8645 22.5642 11.4867 22.2531C12.109 21.9419 12.7884 21.7616 13.483 21.7231H14.366C14.9996 21.6966 15.6295 21.8332 16.1952 22.1198C16.7609 22.4065 17.2436 22.8335 17.597 23.3601C17.597 23.3601 17.77 23.5321 17.77 23.6181C17.947 23.9811 18.313 24.2141 18.717 24.2221C19.017 24.2471 19.297 24.0721 19.407 23.7911C19.4819 23.5312 19.4812 23.2553 19.4048 22.9958C19.3285 22.7363 19.1797 22.504 18.976 22.3261C18.545 21.8961 18.286 21.7231 18.114 21.5511C17.942 21.3781 17.77 21.2921 17.684 21.0341C17.8394 19.7268 18.4779 18.5249 19.474 17.6642C20.4701 16.8035 21.752 16.3462 23.068 16.3821C24.4386 16.351 25.7812 16.7733 26.8873 17.5833C27.9933 18.3934 28.801 19.5459 29.185 20.8621C28.1699 21.2822 27.2843 21.9641 26.6185 22.838C25.9527 23.712 25.5305 24.7468 25.395 25.8371C25.222 26.6121 25.48 27.2151 26.083 27.3021H26.342C26.945 27.3021 27.203 26.5261 27.29 25.9231C27.4905 24.8597 27.9965 23.8778 28.7462 23.0975C29.4958 22.3171 30.4566 21.7721 31.511 21.5291H32.286C33.0126 21.4809 33.7412 21.5865 34.4242 21.8389C35.1072 22.0914 35.7294 22.485 36.25 22.9941C36.6802 23.4698 36.9906 24.0414 37.1553 24.6613C37.32 25.2812 37.3343 25.9315 37.197 26.5581L37.176 26.5481Z" fill="#2A2A2A"/>
<path d="M37.2129 26.558C36.7819 30.608 32.4739 30.952 31.1819 30.952H14.2099C12.5729 30.952 9.12689 29.574 8.82489 26.989C8.76008 26.3716 8.82219 25.7474 9.00739 25.1548C9.1926 24.5622 9.497 24.0137 9.90189 23.543C10.3494 23.0102 10.9013 22.5748 11.5235 22.2635C12.1458 21.9522 12.8252 21.7717 13.5199 21.733H14.4029C15.0366 21.7067 15.6665 21.8434 16.2322 22.1302C16.798 22.417 17.2806 22.8443 17.6339 23.371C17.6339 23.371 17.8069 23.543 17.8069 23.629C17.9839 23.992 18.3499 24.225 18.7539 24.232C19.0539 24.257 19.3339 24.082 19.4439 23.802C19.5188 23.5421 19.5181 23.2663 19.4417 23.0068C19.3654 22.7473 19.2166 22.515 19.0129 22.337C18.5819 21.907 18.3229 21.734 18.1509 21.562C17.9789 21.389 17.8069 21.303 17.7209 21.045C17.8761 19.7376 18.5144 18.5354 19.5106 17.6745C20.5068 16.8136 21.7888 16.3562 23.1049 16.392C24.4755 16.361 25.8181 16.7832 26.9241 17.5933C28.0302 18.4034 28.8379 19.5559 29.2219 20.872C28.2066 21.2923 27.3209 21.9743 26.6551 22.8484C25.9894 23.7225 25.5673 24.7576 25.4319 25.848C25.2589 26.623 25.5169 27.226 26.1199 27.312H26.3789C26.9819 27.312 27.2399 26.537 27.3269 25.934C27.5274 24.8707 28.0334 23.8888 28.783 23.1085C29.5327 22.3281 30.4934 21.7831 31.5479 21.54H32.3229C33.0495 21.4919 33.7781 21.5975 34.4611 21.8499C35.1441 22.1023 35.7662 22.4959 36.2869 23.005C37.1469 23.972 37.4919 25.294 37.2129 26.558Z" fill="white"/>
<path d="M30.886 20.1831C31.7912 19.988 32.72 19.9263 33.643 20.0001C34.8003 20.0943 35.9011 20.5398 36.7981 21.277C37.6951 22.0143 38.3454 23.008 38.662 24.1251C39.5779 23.0151 40.06 21.6105 40.019 20.1721C40.0161 18.5086 39.3555 16.9138 38.1812 15.7357C37.007 14.5575 35.4144 13.8915 33.751 13.8831C32.8031 13.8854 31.8682 14.1039 31.0173 14.5218C30.1665 14.9398 29.4222 15.5462 28.841 16.2951L28.625 16.5971C29.7016 17.5554 30.4854 18.7985 30.886 20.1831Z" fill="#EF9D33"/>
</svg>
