<svg width="48" height="48" viewBox="0 0 48 48" fill="none" xmlns="http://www.w3.org/2000/svg">
<path d="M34.214 19.6C33.2718 19.5206 32.323 19.5799 31.398 19.776C30.8841 18.0882 29.8316 16.6151 28.4013 15.5822C26.971 14.5492 25.2418 14.0131 23.478 14.056C19.518 14.056 16.438 16.52 15.998 19.688C15.6892 19.6092 15.37 19.5795 15.052 19.6H13.952C10.08 19.864 7 22.68 7 26.112C7 29.72 10.3 32.624 14.48 32.624H31.31C35.358 32.624 39.582 31.04 39.582 25.496C39.5879 24.0196 39.0397 22.5947 38.0458 21.503C37.0518 20.4113 35.6845 19.7322 34.214 19.6ZM37.822 26.288C37.382 30.424 32.982 30.776 31.662 30.776H14.326C12.654 30.776 9.134 29.368 8.826 26.728C8.75979 26.0973 8.82322 25.4597 9.01238 24.8543C9.20154 24.249 9.51245 23.6888 9.926 23.208C10.3832 22.6638 10.947 22.2191 11.5827 21.9013C12.2183 21.5835 12.9124 21.3992 13.622 21.36H14.524C15.171 21.334 15.8139 21.474 16.3915 21.7666C16.9692 22.0593 17.4623 22.4949 17.824 23.032C17.824 23.032 18 23.208 18 23.296C18.089 23.4778 18.2265 23.6315 18.3973 23.7402C18.5681 23.8489 18.7656 23.9083 18.968 23.912C19.1171 23.9245 19.2663 23.8884 19.3932 23.8091C19.5201 23.7297 19.6179 23.6115 19.672 23.472C19.7485 23.2066 19.7478 22.9249 19.6699 22.6599C19.5919 22.3949 19.44 22.1577 19.232 21.976C18.792 21.536 18.528 21.36 18.352 21.184C18.176 21.008 18 20.92 17.912 20.656C18.0707 19.3205 18.7229 18.0926 19.7405 17.2134C20.7581 16.3342 22.0677 15.8671 23.412 15.904C24.812 15.8722 26.1833 16.3035 27.3131 17.1309C28.4429 17.9583 29.2679 19.1356 29.66 20.48C28.6229 20.9091 27.7181 21.6055 27.0379 22.4983C26.3577 23.391 25.9264 24.4482 25.788 25.562C25.612 26.354 25.876 26.97 26.492 27.058H26.756C27.372 27.058 27.636 26.266 27.724 25.65C27.9288 24.5638 28.4458 23.5608 29.2116 22.7638C29.9774 21.9667 30.9589 21.4101 32.036 21.162H32.828C33.57 21.1122 34.3142 21.2197 35.0118 21.4775C35.7094 21.7353 36.3447 22.1376 36.876 22.658C37.3157 23.1439 37.6329 23.7278 37.8013 24.3612C37.9697 24.9945 37.9843 25.6588 37.844 26.299L37.822 26.288Z" fill="#2A2A2A"/>
<path d="M37.822 26.299C37.382 30.435 32.982 30.787 31.662 30.787H14.326C12.654 30.787 9.13399 29.379 8.82599 26.739C8.75979 26.1083 8.82321 25.4707 9.01237 24.8654C9.20153 24.26 9.51244 23.6998 9.92599 23.219C10.3832 22.6749 10.947 22.2302 11.5827 21.9123C12.2183 21.5945 12.9124 21.4103 13.622 21.371H14.524C15.171 21.345 15.8139 21.485 16.3915 21.7777C16.9691 22.0703 17.4623 22.5059 17.824 23.043C17.824 23.043 18 23.219 18 23.307C18.089 23.4888 18.2265 23.6425 18.3973 23.7512C18.5681 23.8599 18.7656 23.9193 18.968 23.923C19.1171 23.9355 19.2663 23.8994 19.3932 23.8201C19.5201 23.7408 19.6179 23.6225 19.672 23.483C19.7485 23.2176 19.7478 22.9359 19.6699 22.6709C19.5919 22.4059 19.44 22.1687 19.232 21.987C18.792 21.547 18.528 21.371 18.352 21.195C18.176 21.019 18 20.931 17.912 20.667C18.0707 19.3315 18.7229 18.1037 19.7405 17.2244C20.7581 16.3452 22.0677 15.8781 23.412 15.915C24.812 15.8832 26.1833 16.3145 27.3131 17.1419C28.4429 17.9694 29.2679 19.1466 29.66 20.491C28.6229 20.9201 27.7181 21.6165 27.0379 22.5093C26.3577 23.402 25.9264 24.4592 25.788 25.573C25.612 26.365 25.876 26.981 26.492 27.069H26.756C27.372 27.069 27.636 26.277 27.724 25.661C27.9288 24.5748 28.4458 23.5718 29.2116 22.7748C29.9774 21.9777 30.9589 21.4211 32.036 21.173H32.828C33.57 21.1232 34.3142 21.2307 35.0118 21.4885C35.7094 21.7463 36.3447 22.1486 36.876 22.669C37.756 23.657 38.106 25.007 37.822 26.299Z" fill="#828190"/>
<path d="M22.312 26.464C22.3844 26.4709 22.4547 26.492 22.5188 26.5262C22.5829 26.5604 22.6397 26.607 22.6857 26.6632C22.7317 26.7195 22.7661 26.7843 22.787 26.854C22.8078 26.9236 22.8146 26.9967 22.807 27.069C22.8004 27.1342 22.7818 27.1976 22.752 27.256L20.552 32.624H23.852C24.08 32.636 24.259 32.824 24.259 33.053C24.2524 33.1182 24.2338 33.1816 24.204 33.24L23.5 34.472L19.276 41.248C19.188 41.336 19.1 41.424 19.012 41.424C18.9079 41.4102 18.8131 41.3568 18.7475 41.2748C18.6819 41.1928 18.6506 41.0886 18.66 40.984L20.596 35.176H16.724C16.6734 35.176 16.6234 35.166 16.5767 35.1467C16.53 35.1273 16.4875 35.099 16.4518 35.0632C16.416 35.0275 16.3877 34.985 16.3683 34.9383C16.349 34.8916 16.339 34.8415 16.339 34.791C16.3282 34.7439 16.3282 34.695 16.339 34.648L16.779 33.328L18.924 26.904C18.9697 26.8014 19.0436 26.7139 19.1371 26.6516C19.2305 26.5893 19.3397 26.5547 19.452 26.552L22.224 26.464" fill="#F4C53E"/>
<path d="M22.312 26.464C22.3844 26.4709 22.4546 26.492 22.5188 26.5262C22.5829 26.5604 22.6397 26.607 22.6857 26.6632C22.7317 26.7195 22.7661 26.7843 22.787 26.854C22.8078 26.9236 22.8146 26.9967 22.807 27.069C22.8004 27.1342 22.7818 27.1976 22.752 27.256L20.552 32.624H23.852C24.08 32.636 24.259 32.824 24.259 33.053C24.2524 33.1182 24.2338 33.1816 24.204 33.24L23.5 34.472L19.276 41.248C19.188 41.336 19.1 41.424 19.012 41.424C18.9079 41.4102 18.8131 41.3568 18.7475 41.2748C18.6819 41.1928 18.6506 41.0886 18.66 40.984L20.596 35.176H16.724C16.6734 35.176 16.6234 35.166 16.5767 35.1467C16.53 35.1273 16.4875 35.099 16.4518 35.0632C16.416 35.0275 16.3877 34.985 16.3683 34.9383C16.349 34.8916 16.339 34.8416 16.339 34.791C16.3282 34.7439 16.3282 34.695 16.339 34.648L16.779 33.328L18.924 26.904C18.9697 26.8014 19.0436 26.7139 19.1371 26.6516C19.2305 26.5893 19.3397 26.5547 19.452 26.552L22.224 26.464H22.312ZM22.224 24.704H19.496C19.0337 24.7095 18.584 24.8555 18.2068 25.1227C17.8295 25.39 17.5425 25.7657 17.384 26.2L15.272 32.624L14.832 33.9C14.6969 34.2164 14.6501 34.5636 14.6966 34.9045C14.743 35.2454 14.8811 35.5673 15.096 35.836C15.2915 36.1255 15.553 36.3643 15.8591 36.5326C16.1651 36.7009 16.5069 36.7939 16.856 36.804H18.176L17.076 40.324C16.9818 40.6325 16.9567 40.958 17.0023 41.2774C17.0479 41.5967 17.1632 41.9022 17.34 42.172C17.728 42.712 18.347 43.038 19.012 43.052C19.3644 43.0589 19.7125 42.9731 20.0214 42.8032C20.3302 42.6333 20.5891 42.3853 20.772 42.084L24.996 35.308L25.7 34.076C25.8772 33.7522 25.97 33.3891 25.97 33.02C25.97 32.6509 25.8772 32.2878 25.7 31.964C25.5119 31.6378 25.2431 31.3654 24.9196 31.1728C24.596 30.9802 24.2284 30.8739 23.852 30.864H23.236L24.336 27.96C24.5201 27.6068 24.6163 27.2143 24.6163 26.816C24.6163 26.4177 24.5201 26.0252 24.336 25.672C24.1094 25.3512 23.8044 25.0938 23.4501 24.9243C23.0958 24.7549 22.704 24.679 22.312 24.704H22.224Z" fill="#2A2A2A"/>
<path d="M26.078 39.7594C26.1944 41.1633 27.8192 41.9947 29.1582 41.5572C32.5787 40.4395 30.8146 35.5 30.8146 35.5C30.8146 35.5 25.835 36.8279 26.078 39.7594Z" fill="#0F79BE"/>
</svg>
