<svg width="48" height="48" viewBox="0 0 48 48" fill="none" xmlns="http://www.w3.org/2000/svg">
<path fill-rule="evenodd" clip-rule="evenodd" d="M9 16H38V32H9V16Z" fill="white"/>
<path d="M38.724 14.88C38.8412 14.8737 38.9585 14.8921 39.0681 14.934C39.1778 14.976 39.2773 15.0406 39.3604 15.1236C39.4434 15.2067 39.508 15.3062 39.55 15.4159C39.5919 15.5255 39.6104 15.6428 39.604 15.76V32.128C39.5846 32.3468 39.483 32.5501 39.3197 32.697C39.1565 32.844 38.9436 32.9236 38.724 32.92H8.276C8.15877 32.9264 8.04151 32.9079 7.93187 32.866C7.82222 32.824 7.72265 32.7594 7.63963 32.6764C7.55662 32.5934 7.49202 32.4938 7.45004 32.3841C7.40806 32.2745 7.38965 32.1572 7.396 32.04V15.76C7.38965 15.6428 7.40806 15.5255 7.45004 15.4159C7.49202 15.3062 7.55662 15.2067 7.63963 15.1236C7.72265 15.0406 7.82222 14.976 7.93187 14.934C8.04151 14.8921 8.15877 14.8737 8.276 14.88H38.724ZM9.024 31.16H37.8V16.64H9.068L9.024 31.16Z" fill="#2A2A2A"/>
<path d="M12.896 26.639V21.216H14.876C15.375 21.207 15.872 21.274 16.35 21.414C16.763 21.522 17.142 21.734 17.45 22.03C17.6751 22.2577 17.8478 22.5317 17.956 22.833C18.081 23.186 18.141 23.559 18.132 23.933C18.142 24.307 18.083 24.681 17.956 25.033C17.8478 25.3343 17.6751 25.6083 17.45 25.836C17.1421 26.132 16.7633 26.3441 16.35 26.452C15.87 26.588 15.374 26.652 14.876 26.639H12.896ZM14.832 25.396C15.1048 25.3993 15.3773 25.3772 15.646 25.33C15.8506 25.2956 16.0412 25.2041 16.196 25.066C16.3336 24.9495 16.4364 24.7972 16.493 24.626C16.5706 24.4034 16.6079 24.1687 16.603 23.933C16.6059 23.6974 16.5687 23.4631 16.493 23.24C16.4364 23.0688 16.3336 22.9165 16.196 22.8C16.0412 22.6619 15.8506 22.5704 15.646 22.536C15.3773 22.4888 15.1048 22.4667 14.832 22.47H14.348V25.396H14.832ZM23.665 24.307C23.672 24.657 23.625 25.007 23.522 25.341C23.427 25.625 23.265 25.881 23.049 26.089C22.823 26.298 22.558 26.459 22.268 26.562C21.913 26.676 21.541 26.732 21.168 26.727C20.7947 26.7332 20.423 26.6774 20.068 26.562C19.7751 26.4586 19.5059 26.2978 19.276 26.089C19.0601 25.8817 18.8978 25.625 18.803 25.341C18.697 25.0067 18.6451 24.6577 18.649 24.307V21.216H20.112V24.406C20.082 24.651 20.163 24.896 20.332 25.077C20.4359 25.1594 20.5557 25.2193 20.684 25.253C20.852 25.299 21.026 25.321 21.201 25.319C21.368 25.32 21.535 25.298 21.696 25.253C21.8243 25.2193 21.9441 25.1594 22.048 25.077C22.129 24.9864 22.1904 24.88 22.2283 24.7645C22.2661 24.649 22.2796 24.527 22.268 24.406V21.216H23.698L23.665 24.307ZM25.029 25.253L25.865 25.396C26.081 25.41 26.298 25.41 26.514 25.396C27.086 25.396 27.372 25.253 27.372 24.956C27.3742 24.8977 27.3586 24.8401 27.3271 24.7909C27.2956 24.7418 27.2499 24.7034 27.196 24.681C27.0039 24.6012 26.8051 24.5386 26.602 24.494L26.063 24.362C25.7977 24.3027 25.5368 24.2255 25.282 24.131C25.0729 24.0446 24.8768 23.9299 24.699 23.79C24.5383 23.6718 24.4129 23.5121 24.336 23.328C24.2439 23.1282 24.1987 22.91 24.204 22.69C24.195 22.44 24.256 22.192 24.38 21.975C24.5 21.775 24.666 21.605 24.864 21.48C25.086 21.34 25.332 21.244 25.59 21.194C25.893 21.126 26.203 21.093 26.514 21.095C26.858 21.095 27.201 21.132 27.537 21.205C27.871 21.266 28.197 21.37 28.505 21.513L28.274 22.514L27.603 22.448H27.042C26.8661 22.4379 26.6899 22.4379 26.514 22.448C26.2872 22.4256 26.0588 22.4256 25.832 22.448C25.689 22.448 25.612 22.558 25.612 22.679C25.619 22.779 25.683 22.865 25.777 22.899C25.954 22.976 26.138 23.035 26.327 23.075L26.833 23.196C27.133 23.26 27.427 23.348 27.713 23.46C27.933 23.54 28.14 23.651 28.329 23.79C28.4841 23.9067 28.6055 24.0622 28.681 24.241C28.763 24.44 28.801 24.654 28.791 24.868C28.795 25.138 28.739 25.404 28.626 25.649C28.516 25.872 28.359 26.067 28.164 26.221C27.9499 26.3848 27.7076 26.5078 27.449 26.584C27.1516 26.6656 26.8444 26.7063 26.536 26.705C26.0972 26.7075 25.6603 26.6483 25.238 26.529C24.854 26.4251 24.4844 26.2736 24.138 26.078L24.479 25.121L25.029 25.253ZM30.661 22.426H28.846V21.216H33.928V22.426H32.113V26.639H30.661V22.426Z" fill="#2A2A2A"/>
</svg>
