<svg width="48" height="48" viewBox="0 0 48 48" fill="none" xmlns="http://www.w3.org/2000/svg">
<g clip-path="url(#clip0)">
<g filter="url(#filter0_f)">
<path d="M31.574 33.9H13.974C11.2402 33.9 9.024 36.1162 9.024 38.85C9.024 41.5838 11.2402 43.8 13.974 43.8H31.574C34.3078 43.8 36.524 41.5838 36.524 38.85C36.524 36.1162 34.3078 33.9 31.574 33.9Z" fill="white"/>
</g>
<path d="M18.715 36.012C18.7413 35.9624 18.7841 35.9235 18.836 35.902H20.112V41.325H18.715V38.025L17.615 39.455H16.658C16.6181 39.4345 16.584 39.4042 16.559 39.367L15.459 38.047V41.347H14.051V35.847H15.415C15.4627 35.8745 15.504 35.9121 15.536 35.957L17.12 37.937L18.715 36.012ZM22.422 41.303H20.97V35.88H22.422V41.303ZM23.852 39.906C24.16 39.972 24.435 40.016 24.688 40.049H25.337C25.909 40.049 26.195 39.906 26.195 39.609C26.1867 39.5662 26.1697 39.5256 26.1451 39.4897C26.1205 39.4537 26.0888 39.4232 26.052 39.4C25.8588 39.3262 25.6602 39.2674 25.458 39.224L24.952 39.07C24.6879 39.0022 24.4272 38.9214 24.171 38.828C23.9599 38.7507 23.7629 38.6393 23.588 38.498C23.4258 38.3767 23.3001 38.213 23.225 38.025C23.127 37.8271 23.0816 37.6074 23.093 37.387C23.079 37.137 23.14 36.887 23.269 36.672C23.389 36.472 23.555 36.302 23.753 36.177C23.977 36.042 24.223 35.945 24.479 35.891C24.782 35.824 25.092 35.791 25.403 35.792C25.746 35.802 26.088 35.838 26.426 35.902C26.76 35.966 27.085 36.07 27.394 36.21L27.152 37.2H25.37C25.1432 37.178 24.9148 37.178 24.688 37.2C24.6587 37.1984 24.6294 37.203 24.602 37.2135C24.5746 37.224 24.5497 37.2401 24.5289 37.2609C24.5082 37.2816 24.492 37.3065 24.4815 37.3339C24.471 37.3613 24.4664 37.3907 24.468 37.42C24.468 37.522 24.536 37.611 24.633 37.64C24.808 37.722 24.993 37.78 25.183 37.816L25.689 37.937C26.03 38.025 26.327 38.113 26.569 38.201C26.7906 38.2774 26.9986 38.3889 27.185 38.531C27.338 38.651 27.459 38.805 27.537 38.982C27.612 39.182 27.649 39.395 27.647 39.609C27.649 39.879 27.592 40.144 27.482 40.39C27.3628 40.62 27.1964 40.8222 26.9935 40.9834C26.7907 41.1445 26.556 41.2609 26.305 41.325C26.007 41.404 25.7 41.445 25.392 41.446C24.9532 41.4485 24.5163 41.3893 24.094 41.27C23.7105 41.1694 23.341 41.0216 22.994 40.83L23.335 39.862L23.852 39.906ZM29.517 37.079H27.724V35.88H32.784V37.079H31.024V41.303H29.517V37.079ZM34.214 19.6C33.2718 19.5214 32.3231 19.5807 31.398 19.776C30.8841 18.0882 29.8316 16.6151 28.4013 15.5822C26.971 14.5492 25.2418 14.0131 23.478 14.056C19.518 14.056 16.438 16.52 15.998 19.688C15.6892 19.6092 15.37 19.5795 15.052 19.6H13.952C10.08 19.864 7 22.68 7 26.112C7 29.72 10.3 32.624 14.48 32.624H31.31C35.358 32.624 39.582 31.04 39.582 25.496C39.5854 24.0203 39.0364 22.5968 38.0429 21.5056C37.0494 20.4144 35.6835 19.7346 34.214 19.6ZM37.822 26.288C37.382 30.424 32.982 30.776 31.662 30.776H14.326C12.654 30.776 9.134 29.368 8.826 26.728C8.75979 26.0973 8.82322 25.4597 9.01238 24.8543C9.20154 24.249 9.51245 23.6888 9.926 23.208C10.3832 22.6638 10.947 22.2191 11.5827 21.9013C12.2183 21.5835 12.9124 21.3992 13.622 21.36H14.524C15.1712 21.3329 15.8145 21.4725 16.3923 21.7652C16.9701 22.058 17.463 22.4941 17.824 23.032C17.824 23.032 18 23.208 18 23.296C18.089 23.4778 18.2265 23.6315 18.3973 23.7402C18.5681 23.8489 18.7656 23.9083 18.968 23.912C19.1171 23.9245 19.2663 23.8884 19.3932 23.8091C19.5201 23.7297 19.6179 23.6115 19.672 23.472C19.7485 23.2066 19.7478 22.9249 19.6699 22.6599C19.5919 22.3949 19.44 22.1577 19.232 21.976C18.792 21.536 18.528 21.36 18.352 21.184C18.176 21.008 18 20.92 17.912 20.656C18.0707 19.3205 18.7229 18.0926 19.7405 17.2134C20.7581 16.3342 22.0677 15.8671 23.412 15.904C24.812 15.8722 26.1833 16.3035 27.3131 17.1309C28.4429 17.9583 29.2679 19.1356 29.66 20.48C28.6229 20.9091 27.7181 21.6055 27.0379 22.4983C26.3577 23.391 25.9264 24.4482 25.788 25.562C25.612 26.354 25.876 26.97 26.492 27.058H26.756C27.372 27.058 27.636 26.266 27.724 25.65C27.9288 24.5638 28.4458 23.5608 29.2116 22.7638C29.9774 21.9667 30.9589 21.4101 32.036 21.162H32.828C34.328 21.062 35.801 21.607 36.876 22.658C37.3157 23.1439 37.6329 23.7278 37.8013 24.3612C37.9697 24.9945 37.9843 25.6588 37.844 26.299L37.822 26.288Z" fill="#2A2A2A"/>
<path d="M37.822 26.299C37.382 30.435 32.982 30.787 31.662 30.787H14.326C12.654 30.787 9.13399 29.379 8.82599 26.739C8.75979 26.1083 8.82321 25.4707 9.01237 24.8654C9.20153 24.26 9.51244 23.6998 9.92599 23.219C10.3832 22.6749 10.947 22.2302 11.5827 21.9123C12.2183 21.5945 12.9124 21.4103 13.622 21.371H14.524C15.1712 21.3439 15.8144 21.4835 16.3922 21.7762C16.97 22.069 17.463 22.5052 17.824 23.043C17.824 23.043 18 23.219 18 23.307C18.089 23.4888 18.2265 23.6425 18.3973 23.7512C18.5681 23.8599 18.7656 23.9193 18.968 23.923C19.1171 23.9355 19.2663 23.8994 19.3932 23.8201C19.5201 23.7408 19.6179 23.6225 19.672 23.483C19.7485 23.2176 19.7478 22.9359 19.6699 22.6709C19.5919 22.4059 19.44 22.1687 19.232 21.987C18.792 21.547 18.528 21.371 18.352 21.195C18.176 21.019 18 20.931 17.912 20.667C18.0707 19.3315 18.7229 18.1037 19.7405 17.2244C20.7581 16.3452 22.0677 15.8781 23.412 15.915C24.812 15.8832 26.1833 16.3145 27.3131 17.1419C28.4429 17.9694 29.2679 19.1466 29.66 20.491C28.6229 20.9201 27.7181 21.6165 27.0379 22.5093C26.3577 23.402 25.9264 24.4592 25.788 25.573C25.612 26.365 25.876 26.981 26.492 27.069H26.756C27.372 27.069 27.636 26.277 27.724 25.661C27.9288 24.5748 28.4458 23.5718 29.2116 22.7748C29.9774 21.9777 30.9589 21.4211 32.036 21.173H32.828C34.328 21.073 35.801 21.618 36.876 22.669C37.756 23.657 38.106 25.007 37.822 26.299Z" fill="white"/>
</g>
<defs>
<filter id="filter0_f" x="3.024" y="27.9" width="39.5" height="21.9" filterUnits="userSpaceOnUse" color-interpolation-filters="sRGB">
<feFlood flood-opacity="0" result="BackgroundImageFix"/>
<feBlend mode="normal" in="SourceGraphic" in2="BackgroundImageFix" result="shape"/>
<feGaussianBlur stdDeviation="3" result="effect1_foregroundBlur"/>
</filter>
<clipPath id="clip0">
<rect width="48" height="48" fill="white"/>
</clipPath>
</defs>
</svg>
