<svg width="48" height="48" viewBox="0 0 48 48" fill="none" xmlns="http://www.w3.org/2000/svg">
<path fill-rule="evenodd" clip-rule="evenodd" d="M8 16H39V32H8V16Z" fill="white"/>
<path d="M38.724 14.88C38.8338 14.8741 38.9437 14.8899 39.0474 14.9265C39.1511 14.9631 39.2466 15.0198 39.3283 15.0934C39.4101 15.167 39.4765 15.2559 39.5238 15.3552C39.5711 15.4545 39.5984 15.5622 39.604 15.672V32.172C39.5744 32.3828 39.4684 32.5755 39.3062 32.7133C39.144 32.8512 38.9368 32.9248 38.724 32.92H8.27599C8.16617 32.9259 8.05626 32.9101 7.95256 32.8735C7.84885 32.8369 7.75339 32.7802 7.67164 32.7066C7.5899 32.633 7.52347 32.5441 7.47617 32.4448C7.42887 32.3455 7.40162 32.2378 7.39599 32.128V15.76C7.39006 15.6502 7.40585 15.5403 7.44247 15.4366C7.47909 15.3329 7.53581 15.2374 7.60938 15.1557C7.68295 15.0739 7.77193 15.0075 7.87122 14.9602C7.97051 14.9129 8.07816 14.8856 8.18799 14.88H38.724ZM9.02399 31.16H37.8V16.64H9.06799L9.02399 31.16Z" fill="#2A2A2A"/>
<path d="M19.419 21.161V22.36H16.735V23.537H19.155V24.714H16.735V26.584H15.283V21.161H19.419ZM25.348 23.9C25.353 24.296 25.278 24.689 25.128 25.055C24.985 25.385 24.78 25.683 24.523 25.935C24.266 26.179 23.963 26.37 23.632 26.496C22.9244 26.7711 22.1395 26.7711 21.432 26.496C21.1006 26.3702 20.7977 26.1795 20.541 25.935C20.2779 25.6677 20.0728 25.349 19.9384 24.9989C19.804 24.6488 19.7433 24.2747 19.76 23.9C19.7573 23.5222 19.8322 23.1478 19.98 22.8C20.12 22.469 20.326 22.17 20.585 21.92C20.845 21.676 21.146 21.482 21.476 21.348C22.1835 21.073 22.9684 21.073 23.676 21.348C24.006 21.482 24.308 21.676 24.567 21.92C24.826 22.17 25.032 22.469 25.172 22.8C25.3 23.152 25.36 23.525 25.348 23.9ZM23.83 23.9C23.8515 23.5365 23.7334 23.1785 23.5 22.899C23.2398 22.6663 22.903 22.5377 22.554 22.5377C22.2049 22.5377 21.8681 22.6663 21.608 22.899C21.3944 23.1911 21.2792 23.5436 21.2792 23.9055C21.2792 24.2674 21.3944 24.6199 21.608 24.912C21.8681 25.1447 22.2049 25.2734 22.554 25.2734C22.903 25.2734 23.2398 25.1447 23.5 24.912C23.735 24.629 23.853 24.267 23.83 23.9ZM30.1 23.163L29.253 22.646C29.1267 22.5623 28.9898 22.4958 28.846 22.448C28.7061 22.4107 28.5618 22.3922 28.417 22.393C28.2576 22.3922 28.1 22.4259 27.955 22.492C27.81 22.5573 27.682 22.6552 27.581 22.778C27.4654 22.9104 27.3758 23.0634 27.317 23.229C27.257 23.425 27.228 23.629 27.229 23.834C27.196 24.234 27.327 24.632 27.592 24.934C27.87 25.204 28.25 25.344 28.637 25.319H29.693C29.6991 25.2937 29.6991 25.2673 29.693 25.242V24.78H29V23.834H30.914C30.9827 23.8176 31.0543 23.8176 31.123 23.834C31.143 23.891 31.143 23.954 31.123 24.01V26.727H30.1L29.88 26.1L29.484 26.331C29.128 26.5424 28.721 26.6527 28.307 26.65C27.9287 26.657 27.5535 26.582 27.207 26.43C26.8935 26.2968 26.6122 26.098 26.382 25.847C26.1477 25.5887 25.9681 25.2856 25.854 24.956C25.7457 24.6147 25.6937 24.258 25.7 23.9C25.695 23.5 25.774 23.102 25.931 22.734C26.0672 22.4048 26.2707 22.1075 26.5282 21.8613C26.7858 21.6151 27.0919 21.4253 27.427 21.304C27.779 21.172 28.151 21.104 28.527 21.106C29.0622 21.1 29.5883 21.2449 30.045 21.524C30.25 21.651 30.435 21.806 30.595 21.986C30.745 22.166 30.867 22.366 30.958 22.58L30.1 23.163Z" fill="#2A2A2A"/>
</svg>
